<?xml version="1.0" encoding="utf-8"?>
<!-- Generator: Adobe Illustrator 24.2.0, SVG Export Plug-In . SVG Version: 6.00 Build 0)  -->
<svg version="1.1" id="Layer_1" xmlns="http://www.w3.org/2000/svg" xmlns:xlink="http://www.w3.org/1999/xlink" x="0px" y="0px"
	 viewBox="0 0 414.6 270.1" style="enable-background:new 0 0 414.6 270.1;" xml:space="preserve">
<style type="text/css">
	.st0{fill:#00BFD4;}
	.st1{fill:#850963;}
	.st2{fill:#FF5200;}
	.st3{fill:#329846;}
	.st4{fill:#FFA323;}
	.st5{fill:#00ABC6;}
	.st6{fill:#6B174D;}
	.st7{fill:#1C8C56;}
	.st8{fill:#F79400;}
	.st9{fill:#D7411D;}
	.st10{fill:#FFFFFF;}
	.st11{fill:#FFFFFF;stroke:#20201E;stroke-width:0.72;stroke-miterlimit:10;}
</style>
<polygon class="st0" points="73.5,111.9 43.8,128.9 43.8,167.4 103.2,167.4 103.2,128.9 "/>
<polygon class="st1" points="140.5,82.3 110.8,99.3 110.8,167.4 170.2,167.4 170.2,99.3 "/>
<polygon class="st2" points="207.4,53.6 177.7,70.6 177.7,167.4 237.2,167.4 237.2,70.6 "/>
<polygon class="st3" points="341.4,0 311.6,17 311.6,167.4 371.1,167.4 371.1,17 "/>
<polygon class="st4" points="274.4,24.3 244.7,41.3 244.7,167.4 304.1,167.4 304.1,41.3 "/>
<polygon class="st5" points="103.2,167.4 43.8,167.4 0,220 77.2,220 "/>
<polygon class="st6" points="170.2,167.4 110.8,167.4 84.7,220 161.5,220 "/>
<polygon class="st7" points="311.6,167.4 371.1,167.4 414.6,220 337.7,220 "/>
<polygon class="st8" points="244.7,167.4 304.1,167.4 330.2,220 253.4,220 "/>
<polygon class="st9" points="237.2,167.4 177.7,167.4 169,220 245.9,220 "/>
<polyline class="st0" points="77.2,270.1 77.2,220 0,220 0,270.1 "/>
<polyline class="st3" points="414.6,270.1 414.6,220 337.7,220 337.7,270.1 "/>
<polyline class="st1" points="161.5,270.1 161.5,220 84.7,220 84.7,270.1 "/>
<polyline class="st4" points="330.2,270.1 330.2,220 253.4,220 253.4,270.1 "/>
<polyline class="st2" points="245.9,270.1 245.9,220 169,220 169,270.1 "/>
<path class="st10" d="M61.5,156.3L61.5,156.3c-0.2,0-0.3-0.2-0.3-0.4c0,0,0,0,0,0l0.7-9.2c0-0.2,0.2-0.3,0.4-0.3
	c0.2,0,0.3,0.2,0.3,0.4c0,0,0,0,0,0l-0.7,9.2C61.9,156.2,61.7,156.3,61.5,156.3z"/>
<path class="st10" d="M65.1,137.2h-0.2c-0.6,0-1.1-0.3-1.5-0.7c-0.5-0.6-0.7-1.3-0.6-2c0-1.3,1-2.3,2.3-2.4c0.1,0,0.1,0,0.2,0
	c0.6,0,1.1,0.3,1.5,0.7c0.4,0.6,0.7,1.3,0.6,2C67.3,136.1,66.3,137.2,65.1,137.2z M65.1,132.9c-0.9,0.1-1.6,0.8-1.5,1.7
	c-0.1,0.5,0.1,1,0.4,1.5c0.3,0.3,0.6,0.5,1,0.5c1.1,0.1,1.6-0.9,1.7-1.7l0,0c0.1-0.5-0.1-1-0.4-1.5c-0.3-0.3-0.6-0.5-1-0.5H65.1z"/>
<path class="st10" d="M77.2,131.3c-1,0-1.9-0.7-2.2-1.7c-0.3-0.6-0.3-1.3-0.1-2c0.2-0.5,0.7-0.9,1.2-1.1c1.2-0.4,2.5,0.2,3,1.4
	c0,0,0,0.1,0,0.1c0.3,0.6,0.3,1.4,0.1,2C78.8,130.9,78,131.4,77.2,131.3L77.2,131.3z M76.9,127c-0.2,0-0.4,0-0.6,0.1
	c-0.4,0.1-0.6,0.4-0.8,0.8c-0.2,0.5-0.1,1,0.1,1.5l0,0c0.2,0.9,1.1,1.4,2,1.2c0.1,0,0.1,0,0.1,0c0.4-0.1,0.6-0.4,0.8-0.8
	c0.2-0.5,0.2-1-0.1-1.5C78.2,127.6,77.6,127.1,76.9,127z"/>
<path class="st10" d="M70.5,152.6L70.5,152.6c-0.2,0-0.4-0.2-0.4-0.4c0,0,0,0,0,0l0.7-4.7c0.2-0.7-0.3-1.5-1-1.6l-3.3-0.7
	c-0.2,0-0.3-0.2-0.3-0.4l0.6-5c0-0.2,0-0.5-0.2-0.7c-0.2-0.2-0.4-0.3-0.6-0.3l-3.2-0.2c-0.9-0.1-1.7,0.3-2.2,1l-2.3,3.3l-0.6,3
	c0,0.1,0,0.2,0.1,0.3c0.1,0.1,0.2,0.1,0.3,0.1c0.2,0,0.3-0.1,0.3-0.3l0.9-3c0-0.1,0-0.1,0.1-0.1l2.6-2.8c0.1-0.1,0.3-0.2,0.4-0.1
	c0.1,0.1,0.2,0.2,0.2,0.4l-0.5,3.2c-0.3,2.1,0,3,2.4,3.3l4.6,0.7c0.2,0,0.3,0.2,0.3,0.4l-0.4,4.2c0,0.2-0.1,0.4-0.3,0.4
	c-0.2,0-0.4-0.1-0.4-0.3c0,0,0-0.1,0-0.1l0.3-3.9l-4.3-0.6c-3-0.4-3.3-1.9-3-4.1l0.3-2l-1.7,1.8l-0.9,2.9c-0.1,0.4-0.5,0.7-1,0.8
	c-0.3,0-0.6-0.1-0.9-0.4c-0.2-0.3-0.3-0.6-0.2-0.9l0.7-3.1c0,0,0-0.1,0.1-0.1l2.3-3.4c0.7-0.9,1.7-1.4,2.9-1.3L66,138
	c0.4,0,0.8,0.2,1.1,0.6c0.3,0.3,0.4,0.8,0.4,1.2l-0.5,4.7l3,0.6c0.5,0.1,1,0.4,1.3,0.9c0.3,0.5,0.4,1,0.3,1.6l-0.7,4.7
	C70.8,152.5,70.7,152.6,70.5,152.6z"/>
<path class="st10" d="M63.6,156.3L63.6,156.3c-0.2,0-0.4-0.2-0.4-0.4l1-7.3c0-0.2,0.2-0.3,0.4-0.3c0,0,0,0,0,0
	c0.2,0,0.3,0.2,0.3,0.4l-1,7.3C63.9,156.2,63.8,156.3,63.6,156.3z"/>
<path class="st10" d="M76.7,149.1L76.7,149.1c-0.2,0-0.3-0.2-0.3-0.4l0.4-3.9c0-0.5,0.3-0.9,0.6-1.3l2.3-2.6l-1.2-4
	c-0.1-0.2,0.1-0.4,0.2-0.4s0.4,0.1,0.4,0.2l0,0l1.2,4.2c0,0.1,0,0.2-0.1,0.3l-2.4,2.8c-0.2,0.2-0.4,0.5-0.4,0.9l-0.4,3.9
	C77,149,76.9,149.1,76.7,149.1z"/>
<path class="st10" d="M78.9,149.1L78.9,149.1c-0.2,0-0.3-0.2-0.3-0.4l0.6-3.6c0-0.1,0.1-0.2,0.1-0.2l4.7-3.4
	c0.8-0.6,1.1-1.8,0.6-2.7l-3.1-6c-0.4-0.7-1.2-1.1-2-0.8l-1.5,0.6c-0.5,0.2-0.8,0.6-0.9,1.1l-0.6,3.6c0,0.1-0.1,0.2-0.2,0.2
	l-3.3,2.2c-0.2,0.1-0.4,0-0.5-0.2c-0.1-0.2,0-0.3,0.1-0.4l3.2-2.1l0.6-3.5c0.2-0.7,0.7-1.3,1.4-1.6l1.5-0.6c1.1-0.5,2.4,0,2.9,1.1
	l3.1,6c0.7,1.2,0.3,2.8-0.8,3.6l-4.5,3.2l-0.5,3.5C79.4,149,79.2,149.2,78.9,149.1C79,149.2,79,149.2,78.9,149.1z"/>
<path class="st10" d="M73.1,141.1c-0.1,0-0.3-0.1-0.3-0.2c-0.1-0.2,0-0.4,0.2-0.5l3.8-1.6l2-2.9c0.1-0.2,0.3-0.2,0.5-0.1
	c0,0,0,0,0,0c0.2,0.1,0.2,0.3,0.1,0.5l-2,3c0,0.1-0.1,0.1-0.1,0.1l-4,1.7L73.1,141.1z"/>
<path class="st10" d="M88.3,149.1c-0.1,0-0.3-0.1-0.3-0.2l-2.2-3.9c0,0,0-0.1,0-0.1l-0.8-4.9c0-0.2,0.1-0.4,0.3-0.4
	c0.2,0,0.4,0.1,0.4,0.3c0,0,0,0,0,0l0.8,4.9l2.2,3.8c0.1,0.2,0,0.4-0.1,0.5c0,0,0,0,0,0C88.4,149.1,88.4,149.1,88.3,149.1z"/>
<path class="st10" d="M86.1,149.2c-0.1,0-0.2-0.1-0.3-0.1l-2.4-3.3c0,0-0.1-0.1-0.1-0.1l-0.7-2.8c0-0.2,0.1-0.4,0.3-0.4
	c0.2,0,0.4,0.1,0.4,0.2c0,0,0,0,0,0l0.7,2.8l2.3,3.3c0.1,0.1,0.1,0.4-0.1,0.5c0,0,0,0,0,0C86.2,149.2,86.1,149.2,86.1,149.2z"/>
<path class="st10" d="M70.2,142.9H70l-2.3-0.8c-0.2-0.1-0.3-0.3-0.2-0.4c0,0,0,0,0,0c0.1-0.2,0.3-0.3,0.5-0.2c0,0,0,0,0,0l2.1,0.8
	l2.5-1.5l0,0c0.2-0.1,0.3-0.3,0.2-0.5l-0.1-0.2l-0.2-0.3l0.2,0.3l-2.4,1.3c-0.1,0.1-0.2,0.1-0.4,0l-3.5-2.2
	c-0.2-0.1-0.2-0.3-0.1-0.5c0,0,0,0,0,0c0.1-0.2,0.3-0.2,0.5-0.1l3.3,2.1l2.2-1.2c0.2-0.1,0.4-0.1,0.6,0c0.2,0.1,0.4,0.2,0.4,0.4
	l0.1,0.3c0.2,0.5,0,1.1-0.6,1.4l-2.6,1.6C70.3,143,70.2,143,70.2,142.9z"/>
<path class="st10" d="M66.5,156.4h-6.1c-0.2,0-0.3-0.2-0.3-0.4c0-0.2,0.1-0.3,0.3-0.3h5.7v-3.3c0-0.2,0.2-0.4,0.4-0.4h6.8v-3.2
	c0-0.2,0.2-0.4,0.3-0.4h0h16c0.2,0,0.4,0.1,0.4,0.3c0,0.2-0.1,0.4-0.3,0.4c0,0-0.1,0-0.1,0H74v3.2c0,0.2-0.2,0.4-0.4,0.4h-6.8v3.2
	C66.9,156.2,66.8,156.4,66.5,156.4C66.6,156.4,66.5,156.4,66.5,156.4z"/>
<path class="st11" d="M140.5,109.9"/>
<path class="st10" d="M143.6,110.8c-0.1,0-0.2,0-0.2-0.1c-0.1-0.1-0.1-0.4,0-0.5c0,0,0,0,0,0l6.5-6.5l-3.1-3.1l-6.4,6.5
	c-0.1,0.1-0.4,0.1-0.5,0c0,0,0,0,0,0c-0.1-0.1-0.1-0.4,0-0.5c0,0,0,0,0,0l6.7-6.7c0.1-0.1,0.4-0.1,0.5,0c0,0,0,0,0,0l3.6,3.6
	c0.1,0.1,0.1,0.2,0.1,0.3c0,0.1,0,0.2-0.1,0.2l-6.7,6.7C143.8,110.8,143.7,110.8,143.6,110.8z"/>
<path class="st10" d="M134.3,120.1c-0.1,0-0.2,0-0.3-0.1l-3.6-3.6c-0.1-0.1-0.1-0.4,0-0.5c0,0,0,0,0,0l6.8-6.8
	c0.1-0.1,0.4-0.1,0.5,0s0.1,0.4,0,0.5l-6.5,6.5l3.1,3.1l6.5-6.5c0.1-0.1,0.4-0.1,0.5,0s0.1,0.4,0,0.5l-6.8,6.7
	C134.4,120,134.4,120.1,134.3,120.1z"/>
<path class="st10" d="M145.7,103c-0.1,0-0.2,0-0.3-0.1l-0.8-0.8c-0.1-0.1-0.1-0.4,0-0.5s0.4-0.1,0.5,0l0.8,0.8
	c0.1,0.1,0.1,0.4,0,0.5c0,0,0,0,0,0C145.9,103,145.8,103,145.7,103z"/>
<path class="st10" d="M142.1,106.6c-0.1,0-0.2,0-0.3-0.1l-0.8-0.8c-0.1-0.1-0.1-0.4,0-0.5c0,0,0,0,0,0c0.1-0.1,0.4-0.1,0.5,0
	c0,0,0,0,0,0l0.8,0.8c0.1,0.1,0.1,0.4,0,0.5c0,0,0,0,0,0C142.3,106.6,142.2,106.6,142.1,106.6z"/>
<path class="st10" d="M144.4,105.3c-0.1,0-0.2,0-0.2-0.1l-1.3-1.3c-0.1-0.1-0.1-0.4,0-0.5s0.4-0.1,0.5,0l1.3,1.3
	c0.1,0.1,0.1,0.4,0,0.5c0,0,0,0,0,0C144.6,105.3,144.5,105.3,144.4,105.3z"/>
<path class="st10" d="M136.8,112c-0.1,0-0.2,0-0.3-0.1l-0.8-0.8c-0.1-0.1-0.1-0.4,0-0.5c0,0,0,0,0,0c0.1-0.1,0.4-0.1,0.5,0
	c0,0,0,0,0,0l0.8,0.8c0.1,0.1,0.1,0.4,0,0.5c0,0,0,0,0,0C137,111.9,136.9,112,136.8,112z"/>
<path class="st10" d="M133.2,115.5c-0.1,0-0.2,0-0.3-0.1l-0.8-0.8c-0.1-0.1-0.1-0.4,0-0.5s0.4-0.1,0.5,0l0.8,0.8
	c0.1,0.1,0.1,0.4,0,0.5C133.4,115.5,133.3,115.5,133.2,115.5L133.2,115.5z"/>
<path class="st10" d="M135.5,114.2c-0.1,0-0.2,0-0.2-0.1l-1.3-1.3c-0.1-0.1-0.1-0.4,0-0.5s0.4-0.1,0.5,0l0,0l1.3,1.3
	c0.1,0.2,0.1,0.4,0,0.5C135.7,114.2,135.6,114.2,135.5,114.2z"/>
<path class="st10" d="M145.5,117.8c-0.1,0-0.2,0-0.2-0.1L132.5,105c-0.1-0.1-0.1-0.4,0-0.5c0,0,0,0,0,0l2.5-2.5
	c0.1-0.1,0.4-0.1,0.5,0l12.8,12.7c0.1,0.1,0.1,0.2,0.1,0.3c0,0.1,0,0.2-0.1,0.2l-2.5,2.5C145.7,117.8,145.6,117.8,145.5,117.8z
	 M133.2,104.7l12.2,12.2l2-2l-12.2-12.3L133.2,104.7z"/>
<path class="st10" d="M149,118.8h-0.1l-3.6-1c-0.1,0-0.2-0.1-0.2-0.2c0-0.1,0-0.3,0.1-0.4l2.5-2.5c0.1-0.1,0.2-0.1,0.4-0.1
	c0.1,0,0.2,0.1,0.2,0.2l1,3.6c0,0.1,0,0.3-0.1,0.4C149.2,118.8,149.1,118.8,149,118.8z M146.1,117.3l2.4,0.7l-0.7-2.4L146.1,117.3z"
	/>
<path class="st10" d="M133,104.8c-0.1,0-0.2,0-0.2-0.1l-1-1c-0.1-0.1-0.1-0.2-0.1-0.3c0-0.1,0-0.2,0.1-0.2l2-2
	c0.1-0.1,0.4-0.1,0.5,0c0,0,0,0,0,0l1,1c0.1,0.1,0.1,0.2,0.1,0.2c0,0.1,0,0.2-0.1,0.3l-2,2C133.2,104.8,133.1,104.8,133,104.8z
	 M132.5,103.4l0.5,0.5l1.5-1.5l-0.5-0.5L132.5,103.4z"/>
<path class="st10" d="M205.5,94.5c-0.1,0-0.2,0-0.3-0.1l-6.3-6.3c-0.2-0.2-0.2-0.4,0-0.6c0,0,0,0,0,0l9.6-9.6
	c1.4-1.4,3.4-2.3,5.4-2.4l3.6-0.2c0.1,0,0.2,0,0.3,0.1c0.1,0.1,0.1,0.2,0.1,0.3l-0.1,3.6c-0.1,2-0.9,3.9-2.4,5.4l-9.6,9.6
	C205.7,94.5,205.6,94.5,205.5,94.5z M199.8,87.8l5.7,5.7l9.3-9.3c1.3-1.3,2.1-3,2.1-4.8l0.1-3.1l-3.1,0.1c-1.8,0.1-3.5,0.8-4.8,2.1
	L199.8,87.8z"/>
<path class="st10" d="M216.6,82.2c-0.1,0-0.2,0-0.3-0.1l-5.1-5.1c-0.2-0.2-0.2-0.4,0-0.6s0.4-0.2,0.6,0l0,0l5.1,5.1
	c0.2,0.2,0.1,0.4,0,0.6C216.8,82.2,216.7,82.2,216.6,82.2z"/>
<path class="st10" d="M210.6,85.1c-0.6,0-1.3-0.3-1.7-0.7c-0.9-0.9-0.9-2.5,0-3.4c0.9-0.9,2.5-0.9,3.4,0c0.9,0.9,0.9,2.5,0,3.4
	C211.9,84.8,211.2,85.1,210.6,85.1z M210.6,81.1c-0.4,0-0.8,0.2-1.1,0.5c-0.6,0.6-0.6,1.7,0,2.3c0.6,0.6,1.7,0.6,2.3,0
	s0.6-1.7,0-2.3C211.4,81.3,211,81.1,210.6,81.1z"/>
<path class="st10" d="M204.6,89.6c-0.1,0-0.2,0-0.3-0.1l-0.6-0.6c-0.2-0.1-0.3-0.3-0.2-0.5c0.1-0.2,0.3-0.3,0.5-0.2
	c0.1,0,0.1,0.1,0.2,0.2l0.6,0.6c0.2,0.2,0.1,0.4,0,0.6C204.8,89.6,204.7,89.7,204.6,89.6L204.6,89.6z"/>
<path class="st10" d="M206.6,87.6c-0.1,0-0.2,0-0.3-0.1l-0.6-0.6c-0.1-0.2,0-0.4,0.1-0.5c0.1-0.1,0.3-0.1,0.4,0l0.6,0.6
	c0.2,0.2,0.1,0.4,0,0.6C206.8,87.6,206.7,87.7,206.6,87.6L206.6,87.6z"/>
<path class="st10" d="M197.5,96.2c-0.1,0-0.2,0-0.3-0.1c-0.2-0.2-0.2-0.4,0-0.6c0,0,0,0,0,0l2-2c0.2-0.2,0.4-0.2,0.6,0c0,0,0,0,0,0
	c0.1,0.2,0.1,0.4,0,0.6l-2,2C197.7,96.1,197.6,96.2,197.5,96.2z"/>
<path class="st10" d="M195.5,98.2c-0.1,0-0.2,0-0.3-0.1c-0.2-0.2-0.2-0.4,0-0.6c0,0,0,0,0,0l0.6-0.6c0.2-0.2,0.4-0.2,0.6,0
	c0,0,0,0,0,0c0.1,0.2,0.1,0.4,0,0.6l-0.6,0.6C195.7,98.1,195.6,98.2,195.5,98.2z"/>
<path class="st10" d="M202.3,94.8c-0.1,0-0.2,0-0.3-0.1l-3.4-3.4c-0.2-0.2-0.2-0.4,0-0.6c0,0,0,0,0,0l0.6-0.6c0.2-0.2,0.4-0.2,0.6,0
	c0,0,0,0,0,0c0.1,0.2,0.1,0.4,0,0.6l-0.3,0.3l2.9,2.9l0.3-0.3c0.2-0.2,0.4-0.2,0.6,0s0.2,0.4,0,0.6l-0.6,0.6
	C202.5,94.7,202.4,94.8,202.3,94.8z"/>
<path class="st10" d="M195.6,93.5c-0.2,0-0.4-0.1-0.4-0.4c0-0.2,0.1-0.4,0.3-0.4l2.5-0.8c0.2,0,0.4,0.1,0.5,0.3
	c0,0.2-0.1,0.4-0.2,0.4l-2.5,0.8C195.7,93.5,195.6,93.5,195.6,93.5z"/>
<path class="st10" d="M200.1,98.1c0,0-0.1,0-0.1,0c-0.2-0.1-0.3-0.3-0.3-0.5l0.8-2.5c0.1-0.2,0.3-0.3,0.5-0.3c0,0,0,0,0,0
	c0.2,0.1,0.3,0.3,0.3,0.5c0,0,0,0,0,0l-0.8,2.5C200.5,98,200.3,98.1,200.1,98.1z"/>
<path class="st10" d="M209.7,97.2l-4-4l5.7-5.8l0.1-0.1l0,0l0.1-0.1l0,0c0.2-0.1,0.4-0.2,0.6,0c0.2,0.1,0.2,0.4,0,0.6c0,0,0,0,0,0
	l0,0l-0.1,0.1l0,0c-1.1,1.1-0.6,3.2-0.1,4.8c0.3,1.1-0.1,2.2-0.9,3L209.7,97.2z M206.9,93.2l2.9,2.9l0.9-0.9
	c0.6-0.6,0.9-1.4,0.7-2.2c-0.5-1.1-0.7-2.4-0.6-3.6L206.9,93.2z"/>
<path class="st10" d="M200,87.5l-4-4l1.5-1.5c0.8-0.8,1.9-1.2,3-0.9c1.6,0.6,3.7,1,4.8-0.1l0,0l0.1-0.1l0,0c0.2-0.2,0.4-0.2,0.6,0
	c0,0,0,0,0,0c0.2,0.2,0.1,0.4,0,0.6l0,0l-0.1,0.1l0,0l-0.1,0.1L200,87.5z M197.2,83.5l2.9,2.9l3.9-3.9c-1.2,0.1-2.5-0.2-3.6-0.6
	c-0.8-0.2-1.6,0.1-2.2,0.7L197.2,83.5z"/>
<path class="st10" d="M284.5,72.7c-0.2,0-0.4-0.2-0.4-0.4v0v-5.8c0-0.2,0.2-0.4,0.4-0.4h0c0.2,0,0.4,0.2,0.4,0.4v0v5.8
	C284.9,72.6,284.7,72.7,284.5,72.7L284.5,72.7z"/>
<path class="st10" d="M285.6,66.9h-6.4c-0.2,0-0.4-0.2-0.4-0.4s0.2-0.4,0.4-0.4c0,0,0,0,0,0h6l-0.7-7.2c0-0.1,0-0.2,0.1-0.3
	c0.1-0.1,0.2-0.1,0.3-0.1h0.4c0.2,0,0.4,0.2,0.4,0.4c0,0.2-0.1,0.4-0.3,0.4l0.7,7.2c0,0.1,0,0.2-0.1,0.3
	C285.9,66.9,285.7,67,285.6,66.9z"/>
<path class="st10" d="M282,72.7c-0.2,0-0.4-0.2-0.4-0.4v0v-5.8c0-0.2,0.2-0.4,0.4-0.4h0c0.2,0,0.4,0.2,0.4,0.4v0v5.8
	C282.4,72.6,282.2,72.7,282,72.7L282,72.7z"/>
<path class="st10" d="M279.4,72.7c-0.2,0-0.4-0.2-0.4-0.4v0v-5.8c0-0.2,0.2-0.4,0.4-0.4h0c0.2,0,0.4,0.2,0.4,0.4v0v5.8
	C279.9,72.6,279.7,72.7,279.4,72.7L279.4,72.7z"/>
<path class="st10" d="M287,64.4h-0.8c-0.2,0-0.4-0.2-0.4-0.4c0-0.2,0.2-0.4,0.4-0.4h0.3l-0.5-5.7c-0.1-1.9-1.8-3.4-3.7-3.2
	c0,0-0.1,0-0.1,0h-0.7c-0.5,0-1.1,0.1-1.6,0.3c-0.2,0.1-0.5,0-0.5-0.2c0,0,0,0,0,0c-0.1-0.2,0-0.5,0.2-0.5c0.6-0.2,1.3-0.3,1.9-0.3
	h0.7c2.4-0.2,4.4,1.6,4.6,4c0,0,0,0,0,0l0.5,6.2C287.4,64.2,287.3,64.4,287,64.4C287,64.4,287,64.4,287,64.4L287,64.4z"/>
<path class="st10" d="M282,53c-1.5-0.2-2.6-1.6-2.4-3.1c0.2-1.3,1.2-2.2,2.4-2.4c0.2,0,0.4,0.2,0.4,0.4s-0.2,0.4-0.4,0.4
	c0,0,0,0,0,0c-1.2,0-1.6,1-1.6,1.9s0.4,1.9,1.6,1.9s1.6-1,1.6-1.9c0-0.3-0.1-0.6-0.2-1c-0.1-0.2,0-0.5,0.2-0.5
	c0.2-0.1,0.5,0,0.5,0.2c0,0,0,0,0,0c0.2,0.4,0.2,0.8,0.2,1.3c0.2,1.4-0.8,2.6-2.2,2.8C282.1,53,282,53,282,53z"/>
<path class="st10" d="M283.8,49.5c-1,0-1.8-0.6-2.2-1.5c-0.1-0.2,0-0.5,0.3-0.5c0.2-0.1,0.5,0,0.5,0.3c0,0,0,0,0,0
	c0.2,0.6,0.8,1,1.4,1c0.2,0,0.4,0.2,0.4,0.4v0C284.1,49.4,284,49.5,283.8,49.5z"/>
<path class="st10" d="M286.4,52.9c-0.3,0-0.6-0.1-0.8-0.3c-0.6-0.6-0.6-1.9-0.7-2.9v-0.3c0.1-1.2-0.7-2.3-2-2.5c-0.1,0-0.2,0-0.3,0
	h-1c-1.4,0-2.7,1.1-2.7,2.5v0.4c0,1,0,2.2-0.7,2.9c-0.2,0.2-0.5,0.3-0.9,0.3c-0.2,0-0.4-0.2-0.4-0.4c0,0,0,0,0,0
	c0-0.2,0.2-0.4,0.4-0.4c0,0,0,0,0,0c0.1,0,0.2,0,0.3-0.1c0.4-0.4,0.4-1.6,0.4-2.3v-0.4c0.1-1.9,1.6-3.4,3.5-3.3h1
	c1.7,0,3.1,1.3,3.1,3c0,0.1,0,0.2,0,0.3v0.4c0,0.7,0,1.9,0.4,2.3c0.1,0.1,0.2,0.1,0.3,0.1c0.2,0,0.4,0.2,0.4,0.4c0,0,0,0,0,0
	C286.8,52.8,286.7,53,286.4,52.9C286.4,53,286.4,53,286.4,52.9L286.4,52.9z"/>
<path class="st10" d="M262.6,65.5h-0.8c-0.2,0-0.4-0.2-0.4-0.4v0v-6.9c0-2.5,2.1-4.5,4.6-4.5h1.7c0.2,0,0.4,0.2,0.4,0.4
	c0,0.2-0.2,0.4-0.4,0.4h-1.7c-2,0-3.7,1.6-3.7,3.6c0,0,0,0,0,0v6.4h0.4c0.2,0,0.4,0.2,0.4,0.4v0C263,65.4,262.8,65.5,262.6,65.5
	L262.6,65.5z"/>
<path class="st10" d="M263.8,73.1c-0.2,0-0.4-0.2-0.4-0.4v0V60.1c-0.2,0-0.4-0.2-0.4-0.4c0-0.2,0.2-0.4,0.4-0.4h0h0.4
	c0.2,0,0.4,0.2,0.4,0.4v0v13C264.3,72.9,264.1,73.1,263.8,73.1C263.9,73.1,263.9,73.1,263.8,73.1z"/>
<path class="st10" d="M267.4,73.1c-0.2,0-0.4-0.2-0.4-0.4v0v-5.9c0-0.2,0.2-0.4,0.4-0.4c0,0,0,0,0,0c0.2,0,0.4,0.2,0.4,0.4v0v5.9
	C267.9,72.9,267.7,73.1,267.4,73.1L267.4,73.1z"/>
<path class="st10" d="M266.8,52.9c-1.5,0-2.5-1.2-2.5-2.9s1-2.9,2.5-2.9s2.5,1.2,2.5,2.9S268.3,52.9,266.8,52.9z M266.8,47.9
	c-1.2,0-1.7,1.1-1.7,2.1s0.4,2.1,1.7,2.1s1.7-1.1,1.7-2.1S268,47.9,266.8,47.9L266.8,47.9z"/>
<path class="st10" d="M270.6,73.1c-0.2,0-0.4-0.2-0.4-0.4v0v-5.9c0-0.2,0.3-0.4,0.5-0.4c0.2,0,0.3,0.2,0.4,0.4v5.9
	C271,72.9,270.8,73.1,270.6,73.1C270.6,73.1,270.6,73.1,270.6,73.1z"/>
<path class="st10" d="M277.3,73.1c-0.2,0-0.4-0.2-0.4-0.4v0v-5.9c0-0.2,0.2-0.4,0.4-0.4c0.2,0,0.4,0.2,0.4,0.4v5.9
	C277.7,72.9,277.5,73.1,277.3,73.1z"/>
<path class="st10" d="M273.9,73.1c-0.2,0-0.4-0.2-0.4-0.4v0V71c0-0.2,0.2-0.4,0.4-0.4h0c0.2,0,0.4,0.2,0.4,0.4v0v1.7
	C274.4,72.9,274.2,73.1,273.9,73.1L273.9,73.1z"/>
<path class="st10" d="M279.7,57.9c-0.2,0-0.4-0.2-0.4-0.4c-0.2-2.1-2-3.7-4.1-3.7h-2.5c-2.1,0-3.9,1.6-4.1,3.7
	c0,0.2-0.2,0.4-0.5,0.3c0,0,0,0,0,0c-0.2,0-0.4-0.3-0.4-0.5c0.3-2.5,2.5-4.4,5-4.4h2.5c2.5,0,4.7,1.9,5,4.4c0,0.2-0.1,0.4-0.4,0.5
	L279.7,57.9z"/>
<path class="st10" d="M273.9,52.1c-1.8,0-2.9-1.4-2.9-3.4s1.2-3.4,2.9-3.4s2.9,1.4,2.9,3.4S275.7,52.1,273.9,52.1z M273.9,46.2
	c-1.5,0-2.1,1.4-2.1,2.5s0.5,2.5,2.1,2.5s2.1-1.4,2.1-2.5S275.5,46.2,273.9,46.2z"/>
<path class="st10" d="M273.9,69.2c-0.1,0-0.1,0-0.2,0c-0.2-0.1-5.1-2.8-6.8-6.5c-0.1-0.2,0-0.5,0.3-0.5c0.2-0.1,0.4,0,0.5,0.2
	c1.4,3,5.3,5.4,6.2,6c0.9-0.5,5-2.9,6.3-6.1c0.1-0.2,0.3-0.3,0.5-0.2c0,0,0,0,0,0c0.2,0.1,0.3,0.3,0.2,0.5c0,0,0,0,0,0
	c-1.6,3.8-6.7,6.5-6.9,6.6C274.1,69.2,274,69.2,273.9,69.2z"/>
<path class="st10" d="M281,60.4c-0.2,0-0.4-0.2-0.4-0.4c-0.2-1.8-1.7-3.1-3.5-3.1c-1.3,0-2.4,1.5-2.9,2.2c-0.1,0.2-0.4,0.2-0.6,0.1
	c0,0-0.1-0.1-0.1-0.1c-0.4-0.7-1.6-2.2-2.9-2.2c-1.8,0-3.3,1.3-3.4,3.1c0,0.2-0.2,0.4-0.5,0.4s-0.4-0.2-0.4-0.5
	c0.2-2.2,2.1-3.9,4.3-3.9c1.4,0,2.5,1.1,3.2,2.1c0.7-0.9,1.9-2.1,3.2-2.1c2.2,0,4.1,1.7,4.3,3.9C281.5,60.2,281.3,60.4,281,60.4
	C281.1,60.4,281.1,60.4,281,60.4L281,60.4z"/>
<path class="st10" d="M266.7,62.9c-0.1,0-0.3,0-0.4-0.1c-0.3-0.1-0.6-0.4-0.6-0.7l-0.2-1.2c0-0.4,0-1,1.1-1.2s1.4,0.4,1.4,0.8
	l0.2,1.2c0.1,0.4-0.1,1-1.1,1.2l0,0C267,62.9,266.9,62.9,266.7,62.9z M267,60.4h-0.2c-0.4,0.1-0.4,0.1-0.4,0.2l0.2,1.2
	c0,0,0,0.1,0,0.1c0.1,0,0.3,0,0.4,0l0,0c0.3,0,0.4-0.1,0.4-0.1l0,0c0,0,0,0,0-0.1l-0.2-1.2C267.2,60.5,267.2,60.4,267,60.4z"/>
<path class="st10" d="M281.1,62.9h-0.4l0,0c-0.3,0-0.5-0.1-0.8-0.3c-0.3-0.2-0.4-0.5-0.3-0.9l0.2-1.2c0.1-0.4,0.3-1,1.4-0.8
	c0.3,0,0.5,0.1,0.8,0.3c0.3,0.2,0.4,0.5,0.3,0.9l-0.2,1.2C282.1,62.6,281.6,62.9,281.1,62.9C281.2,62.9,281.1,62.9,281.1,62.9z
	 M280.9,60.5h-0.1c0,0,0,0,0,0.1l-0.2,1.2c0,0,0,0.1,0,0.1c0,0,0.1,0.1,0.4,0.1l0,0c0.3,0,0.4,0,0.4,0s0,0,0-0.1l0.2-1.2
	c0-0.1,0-0.1,0-0.1c-0.1-0.1-0.2-0.1-0.4-0.1C281,60.5,281,60.5,280.9,60.5z"/>
<path class="st10" d="M341.4,22.5c-0.3,0-0.5-0.2-0.5-0.5v-2.2c0-0.2,0.2-0.5,0.4-0.5c0,0,0,0,0,0c0.3,0,0.5,0.2,0.5,0.5v2.2
	C341.8,22.3,341.6,22.5,341.4,22.5z"/>
<path class="st10" d="M346.7,23.5c-0.1,0-0.3,0-0.4-0.1c-0.2-0.2-0.2-0.5,0-0.6l1.6-1.4c0.2-0.2,0.5-0.1,0.7,0
	c0.2,0.2,0.1,0.5,0,0.6l-1.5,1.4C346.9,23.5,346.8,23.5,346.7,23.5z"/>
<path class="st10" d="M336,23.5c-0.1,0-0.2,0-0.3-0.1l-1.7-1.4c-0.2-0.2-0.2-0.4-0.1-0.6c0,0,0,0,0,0c0.2-0.2,0.4-0.2,0.6-0.1
	c0,0,0,0,0,0l1.7,1.4c0.2,0.2,0.2,0.4,0.1,0.6c0,0,0,0,0,0C336.3,23.5,336.2,23.5,336,23.5z"/>
<path class="st10" d="M337.6,30.4h-0.1c-0.2-0.1-0.4-0.3-0.3-0.6c0.3-0.9,1.2-1.5,2.2-1.2c0.6,0.2,1.1,0.6,1.2,1.2
	c0.1,0.2-0.1,0.5-0.3,0.6c0,0,0,0,0,0c-0.2,0.1-0.5-0.1-0.6-0.3c-0.1-0.4-0.6-0.7-1-0.6c-0.3,0.1-0.5,0.3-0.6,0.6
	C338,30.3,337.8,30.4,337.6,30.4z"/>
<path class="st10" d="M342.6,30.4h-0.1c-0.2-0.1-0.4-0.3-0.3-0.5c0,0,0,0,0,0c0.2-0.8,0.9-1.3,1.7-1.3c0.8,0,1.5,0.5,1.7,1.3
	c0.1,0.2-0.1,0.5-0.3,0.6c0,0,0,0,0,0c-0.2,0.1-0.5-0.1-0.6-0.3c-0.1-0.4-0.6-0.7-1-0.6c-0.3,0.1-0.5,0.3-0.6,0.6
	C343,30.3,342.8,30.4,342.6,30.4z"/>
<path class="st10" d="M341.4,37.4c-2.1,0-3.7-1.7-3.8-3.7c0-0.3,0.2-0.5,0.5-0.5h6.6c0.3,0,0.5,0.2,0.5,0.5
	C345.1,35.7,343.4,37.4,341.4,37.4z M338.6,34.1c0.3,1.5,1.7,2.6,3.3,2.3c1.2-0.2,2.1-1.1,2.3-2.3H338.6z"/>
<path class="st10" d="M341.4,40.4c-4.3,0-7.9-3.5-7.9-7.9s3.5-7.9,7.9-7.9c4.3,0,7.9,3.5,7.9,7.9l0,0
	C349.2,36.9,345.7,40.4,341.4,40.4z M341.4,25.6c-3.8,0-7,3.1-7,6.9s3.1,7,6.9,7s7-3.1,7-6.9c0,0,0,0,0,0
	C348.3,28.7,345.2,25.6,341.4,25.6L341.4,25.6z"/>
<path class="st10" d="M352.9,38c-2.1,0-3.9-1.1-4.9-3c-0.1-0.2,0-0.5,0.3-0.6c0.2-0.1,0.4,0,0.5,0.2c1.2,2.3,4,3.1,6.2,2
	c2.3-1.2,3.1-4,2-6.2s-4-3.1-6.2-2c-0.8,0.4-1.5,1.1-2,2c-0.1,0.2-0.4,0.3-0.6,0.2c-0.2-0.1-0.3-0.4-0.2-0.6
	c1.4-2.7,4.8-3.8,7.5-2.4s3.8,4.8,2.4,7.5C356.9,36.9,355,38,352.9,38L352.9,38z"/>
<path class="st10" d="M329.7,35c-0.9,0-1.7-0.3-2.4-0.8c-0.2-0.1-0.3-0.4-0.1-0.6c0.2-0.2,0.4-0.3,0.6-0.1c0.5,0.4,1.2,0.6,1.8,0.6
	c0.7,0,1.3-0.2,1.8-0.7c0.2-0.2,0.5-0.2,0.6,0c0,0,0,0,0,0c0.2,0.2,0.1,0.5,0,0.6c0,0,0,0,0,0C331.4,34.7,330.6,35,329.7,35z"/>
<path class="st10" d="M329.8,38c-3.1,0-5.5-2.5-5.5-5.6c0-3.1,2.5-5.5,5.6-5.5c2.1,0,4,1.2,4.9,3c0.1,0.2,0,0.5-0.2,0.6
	c-0.2,0.1-0.5,0-0.6-0.2c0,0,0,0,0,0c-1.2-2.3-3.9-3.2-6.2-2c-2.3,1.2-3.2,3.9-2,6.2c1.2,2.3,3.9,3.2,6.2,2c0.8-0.4,1.5-1.1,2-1.9
	c0.1-0.2,0.4-0.4,0.6-0.3c0.2,0.1,0.4,0.4,0.3,0.6c0,0,0,0.1-0.1,0.1C333.7,36.9,331.8,38,329.8,38z"/>
<path class="st10" d="M349.3,48.9c-0.1,0-0.2,0-0.3-0.1l-1.1-0.6l-1.1,0.6c-0.2,0.1-0.4,0.1-0.6,0c-0.2-0.1-0.3-0.4-0.2-0.6l0.2-1.2
	l-0.9-0.9c-0.2-0.2-0.2-0.6,0-0.8c0.1-0.1,0.2-0.1,0.3-0.2l1.2-0.2l0.5-1.1c0.2-0.3,0.5-0.4,0.8-0.3c0.1,0.1,0.2,0.1,0.3,0.3L349,45
	l1.2,0.2c0.2,0,0.4,0.2,0.5,0.4c0.1,0.2,0,0.5-0.1,0.6l-0.9,0.9l0.2,1.2c0,0.2-0.1,0.5-0.2,0.6C349.5,48.9,349.4,48.9,349.3,48.9z
	 M345.8,45.8l0.9,0.9c0.1,0.1,0.1,0.2,0.1,0.3l-0.2,1.3l1.1-0.6c0.1,0,0.2,0,0.3,0l1.1,0.6L349,47c0-0.1,0-0.2,0.1-0.3l0.9-0.9
	l-1.3-0.2c-0.1,0-0.2-0.1-0.2-0.2l-0.6-1.2l-0.6,1.2c0,0.1-0.1,0.2-0.2,0.2L345.8,45.8z"/>
<path class="st10" d="M342.9,48.9c-0.1,0-0.2,0-0.3-0.1l-1.1-0.6l-1.1,0.6c-0.2,0.1-0.4,0.1-0.6,0c-0.2-0.1-0.3-0.4-0.2-0.6l0.2-1.2
	l-0.9-0.9c-0.2-0.2-0.2-0.6,0-0.8c0.1-0.1,0.2-0.1,0.3-0.2l1.2-0.2l0.5-1.1c0.2-0.3,0.5-0.4,0.8-0.3c0.1,0.1,0.2,0.1,0.3,0.3
	l0.5,1.1l1.2,0.2c0.2,0,0.4,0.2,0.5,0.4c0.1,0.2,0,0.5-0.1,0.6l-0.9,0.9l0.2,1.2c0,0.2-0.1,0.5-0.2,0.6
	C343.1,48.9,343,48.9,342.9,48.9z M339.4,45.8l0.9,0.9c0.1,0.1,0.1,0.2,0.1,0.3l-0.2,1.3l1.1-0.6c0.1,0,0.2,0,0.3,0l1.1,0.6
	l-0.2-1.3c0-0.1,0-0.2,0.1-0.3l0.9-0.9l-1.3-0.2c-0.1,0-0.2-0.1-0.2-0.2l-0.6-1.2l-0.6,1.2c0,0.1-0.1,0.2-0.2,0.2L339.4,45.8z"/>
<path class="st10" d="M336.5,48.9c-0.1,0-0.2,0-0.3-0.1l-1.1-0.6l-1.1,0.6c-0.2,0.1-0.4,0.1-0.6,0c-0.2-0.1-0.3-0.4-0.2-0.6l0.2-1.2
	l-0.9-0.9c-0.2-0.2-0.2-0.6,0-0.8c0.1-0.1,0.2-0.1,0.3-0.2L334,45l0.5-1.1c0.2-0.3,0.5-0.4,0.8-0.3c0.1,0.1,0.2,0.1,0.3,0.3l0.5,1.1
	l1.2,0.2c0.2,0,0.4,0.2,0.5,0.4c0.1,0.2,0,0.5-0.1,0.6l-0.9,0.9l0.2,1.2c0,0.2-0.1,0.5-0.2,0.6C336.7,48.9,336.6,48.9,336.5,48.9z
	 M333,45.8l0.9,0.9c0.1,0.1,0.1,0.2,0.1,0.3l-0.2,1.3l1.1-0.6c0.1,0,0.2,0,0.3,0l1.1,0.6l-0.2-1.3c0-0.1,0-0.2,0.1-0.3l0.9-0.9
	l-1.3-0.2c-0.1,0-0.2-0.1-0.2-0.2l-0.6-1.2l-0.6,1.2c0,0.1-0.1,0.2-0.2,0.2L333,45.8z"/>
<path class="st10" d="M355.7,48.9c-0.1,0-0.2,0-0.3-0.1l-1.1-0.6l-1.1,0.6c-0.2,0.1-0.4,0.1-0.6,0c-0.2-0.1-0.3-0.4-0.2-0.6l0.2-1.2
	l-0.9-0.9c-0.2-0.2-0.2-0.6,0-0.8c0.1-0.1,0.2-0.1,0.3-0.2l1.2-0.2l0.5-1.1c0.2-0.3,0.5-0.4,0.8-0.3c0.1,0.1,0.2,0.1,0.3,0.3
	l0.5,1.1l1.2,0.2c0.2,0,0.4,0.2,0.5,0.4c0.1,0.2,0,0.5-0.1,0.6L356,47l0.2,1.2c0,0.2-0.1,0.5-0.2,0.6
	C355.9,48.9,355.8,48.9,355.7,48.9z M352.2,45.8l0.9,0.9c0.1,0.1,0.1,0.2,0.1,0.3l-0.2,1.3l1.1-0.6c0.1,0,0.2,0,0.3,0l1.1,0.6
	l-0.2-1.3c0-0.1,0-0.2,0.1-0.3l0.9-0.9l-1.3-0.2c-0.1,0-0.2-0.1-0.2-0.2l-0.6-1.2l-0.6,1.2c0,0.1-0.1,0.2-0.2,0.2L352.2,45.8z"/>
<path class="st10" d="M330.1,48.9c-0.1,0-0.2,0-0.3-0.1l-1.1-0.6l-1.1,0.6c-0.2,0.1-0.4,0.1-0.6,0c-0.2-0.1-0.3-0.4-0.2-0.6L327,47
	l-0.9-0.9c-0.2-0.2-0.2-0.6,0-0.8c0.1-0.1,0.2-0.1,0.3-0.2l1.2-0.2l0.5-1.1c0.2-0.3,0.5-0.4,0.8-0.3c0.1,0.1,0.2,0.1,0.3,0.3
	l0.5,1.1l1.2,0.2c0.2,0,0.4,0.2,0.5,0.4c0.1,0.2,0,0.5-0.1,0.6l-0.9,0.9l0.2,1.2c0,0.2-0.1,0.5-0.2,0.6
	C330.3,48.9,330.2,48.9,330.1,48.9z M326.6,45.8l0.9,0.9c0.1,0.1,0.1,0.2,0.1,0.3l-0.2,1.3l1.1-0.6c0.1,0,0.2,0,0.3,0l1.1,0.6
	l-0.2-1.3c0-0.1,0-0.2,0.1-0.3l0.9-0.9l-1.3-0.2c-0.1,0-0.2-0.1-0.3-0.2l-0.6-1.2l-0.6,1.2c0,0.1-0.1,0.2-0.2,0.2L326.6,45.8z"/>
<circle class="st10" cx="328.5" cy="31" r="0.6"/>
<circle class="st10" cx="330.9" cy="31" r="0.6"/>
<path class="st10" d="M352.9,35c-0.9,0-1.7-0.3-2.4-0.8c-0.2-0.1-0.3-0.4-0.1-0.6c0.2-0.2,0.4-0.3,0.6-0.1c0.5,0.4,1.2,0.6,1.8,0.6
	c0.7,0,1.3-0.2,1.8-0.7c0.2-0.2,0.5-0.2,0.6,0c0,0,0,0,0,0c0.2,0.2,0.1,0.5,0,0.6C354.7,34.7,353.8,35,352.9,35z"/>
<circle class="st10" cx="351.7" cy="31" r="0.6"/>
<circle class="st10" cx="354.2" cy="31" r="0.6"/>
</svg>
