<?xml version="1.0" standalone="no"?>
<!DOCTYPE svg PUBLIC "-//W3C//DTD SVG 20010904//EN"
 "http://www.w3.org/TR/2001/REC-SVG-20010904/DTD/svg10.dtd">
<svg version="1.0" xmlns="http://www.w3.org/2000/svg"
 width="799.000000pt" height="800.000000pt" viewBox="0 0 799.000000 800.000000"
 preserveAspectRatio="xMidYMid meet">
<metadata>
Created by potrace 1.15, written by Peter Selinger 2001-2017
</metadata>
<g transform="translate(0.000000,800.000000) scale(0.100000,-0.100000)"
fill="#000000" stroke="none">
<path d="M3588 7985 c-178 -18 -284 -36 -533 -91 -106 -24 -298 -83 -465 -143
-172 -62 -561 -248 -620 -296 -8 -7 -31 -21 -50 -30 -88 -45 -323 -213 -493
-352 -139 -115 -429 -411 -549 -561 -289 -362 -505 -751 -660 -1186 -107 -303
-172 -603 -208 -954 -13 -133 -13 -611 0 -744 45 -440 143 -827 308 -1208 264
-613 686 -1162 1207 -1570 121 -96 147 -114 265 -191 456 -299 885 -475 1425
-587 400 -83 913 -97 1350 -36 523 72 1060 264 1510 541 277 169 476 325 714
558 467 457 791 969 1001 1585 24 69 46 138 50 155 4 16 17 64 28 105 46 167
88 401 111 612 14 125 14 691 0 816 -61 568 -225 1084 -496 1561 -396 697
-980 1254 -1692 1611 -443 223 -908 357 -1402 405 -186 18 -618 18 -801 0z
m767 -1957 c74 -76 242 -264 262 -295 8 -12 12 -31 9 -41 -6 -18 -230 -223
-801 -732 -132 -118 -242 -217 -245 -220 -3 -3 -111 -100 -240 -215 -129 -115
-237 -212 -240 -215 -3 -3 -70 -64 -150 -135 -80 -72 -161 -144 -180 -162 -19
-17 -44 -40 -56 -50 -11 -10 -116 -103 -233 -208 -180 -161 -218 -190 -244
-190 -28 0 -49 20 -190 175 -137 152 -158 179 -155 204 2 24 26 51 113 129 61
55 126 114 145 131 31 28 133 119 514 461 62 55 193 172 292 260 98 87 204
182 234 211 30 28 99 90 152 137 129 113 357 317 438 392 54 50 134 121 230
205 9 8 55 50 101 92 117 106 142 124 173 127 5 1 37 -27 71 -61z m856 -949
c87 -98 159 -186 159 -195 0 -19 -66 -86 -200 -205 -87 -77 -231 -207 -585
-524 -110 -99 -259 -232 -330 -296 -194 -173 -726 -650 -840 -753 -56 -50
-136 -122 -179 -161 -44 -38 -84 -75 -90 -80 -56 -51 -144 -123 -157 -128 -27
-9 -62 22 -213 191 -116 129 -146 169 -146 192 0 23 21 47 133 146 117 105
304 273 637 573 58 51 121 108 140 125 19 17 96 86 170 152 74 67 230 206 345
309 116 104 248 223 295 265 681 613 645 582 683 572 10 -2 90 -85 178 -183z
m732 -814 c166 -186 179 -208 140 -251 -10 -11 -79 -73 -153 -139 -74 -66
-155 -138 -180 -161 -25 -23 -162 -146 -305 -274 -143 -128 -298 -268 -345
-310 -47 -42 -105 -94 -130 -116 -25 -21 -47 -41 -50 -44 -3 -3 -198 -179
-435 -390 -236 -212 -496 -445 -577 -518 -82 -73 -158 -136 -171 -141 -43 -16
-52 -8 -285 257 -107 121 -107 126 -4 218 43 38 251 224 462 414 211 190 425
381 475 424 49 44 92 82 95 85 5 6 92 84 345 311 83 74 215 193 295 265 508
458 610 545 637 545 24 0 53 -28 186 -175z"/>
</g>
</svg>
