<svg id="Layer_1" data-name="Layer 1" xmlns="http://www.w3.org/2000/svg" viewBox="0 0 255.03 255.03"><defs><style>.cls-1{fill:#fff;}.cls-2{fill:#00607e;stroke:#00607e;}.cls-2,.cls-3{stroke-miterlimit:10;}.cls-3{fill:#20201d;stroke:#20201d;}</style></defs><circle class="cls-1" cx="127.51" cy="127.51" r="127.51"/><path class="cls-2" d="M171.29,165.24a10.6,10.6,0,1,1,10.6-10.6A10.61,10.61,0,0,1,171.29,165.24Zm0-17a6.36,6.36,0,1,0,6.36,6.36A6.36,6.36,0,0,0,171.29,148.28Z"/><path class="cls-2" d="M171.29,184.94a30.36,30.36,0,0,1-5.21-.47,2.14,2.14,0,0,1-1.72-2.5,18.47,18.47,0,0,0,.36-3.6v-.6a3.31,3.31,0,0,0-1.94-2.92,3.05,3.05,0,0,0-3.22.32,19.48,19.48,0,0,0-1.8,1.59,18.8,18.8,0,0,0-1.63,1.9,2.14,2.14,0,0,1-3,.37,30.94,30.94,0,0,1-2.55-2.27,30.17,30.17,0,0,1-3.21-3.82,2.13,2.13,0,0,1,.42-2.91,18.91,18.91,0,0,0,1.74-1.51,18.47,18.47,0,0,0,2.93-3.82,3.06,3.06,0,0,0,.3-2.74,3,3,0,0,0-2.15-1.68,17.72,17.72,0,0,0-7-.37,2.12,2.12,0,0,1-2.39-1.86,28.64,28.64,0,0,1,.24-8.38,2.1,2.1,0,0,1,2.35-1.76,17.17,17.17,0,0,0,3.95.08,3.29,3.29,0,0,0,2.1-5.52l-.32-.32a17.5,17.5,0,0,0-1.74-1.51,2.13,2.13,0,0,1-.42-2.91,28.4,28.4,0,0,1,7-7,2.11,2.11,0,0,1,2.9.42,18.84,18.84,0,0,0,1.52,1.73l.32.32a3.29,3.29,0,0,0,5.53-2.09c0-.54.07-1.1.07-1.66a18.05,18.05,0,0,0-.16-2.3,2.13,2.13,0,0,1,1.76-2.35,28.13,28.13,0,0,1,9.94,0,2.12,2.12,0,0,1,1.76,2.35,17.62,17.62,0,0,0,.08,5.27,3.26,3.26,0,0,0,2,2.54,3.13,3.13,0,0,0,3.11-.4,20.32,20.32,0,0,0,1.92-1.67,18.91,18.91,0,0,0,1.51-1.74,2.12,2.12,0,0,1,2.91-.42,30,30,0,0,1,3.82,3.2,31.15,31.15,0,0,1,2.27,2.56,2.09,2.09,0,0,1,.45,1.58,2.12,2.12,0,0,1-.82,1.42,18.79,18.79,0,0,0-1.9,1.64,17.12,17.12,0,0,0-1.34,1.5,3.33,3.33,0,0,0-.5,3.35,3.1,3.1,0,0,0,2.49,2,17.43,17.43,0,0,0,4.74,0,2.1,2.1,0,0,1,2.35,1.76,28.64,28.64,0,0,1,.24,8.38,2.12,2.12,0,0,1-2.39,1.86,18.35,18.35,0,0,0-2.49-.19,18.6,18.6,0,0,0-6.5,1.17.75.75,0,0,0-.43,1,18.87,18.87,0,0,0,3.83,5.55,19.11,19.11,0,0,0,2.8,2.29,2.12,2.12,0,0,1,.55,3,30.37,30.37,0,0,1-3.35,4,29.09,29.09,0,0,1-4,3.34,2.11,2.11,0,0,1-1.6.36,2.17,2.17,0,0,1-1.38-.9,18.38,18.38,0,0,0-2.29-2.8c-.32-.31-.64-.62-1-.91a3.07,3.07,0,0,0-3.37-.43,3.12,3.12,0,0,0-1.92,2.87,18.67,18.67,0,0,0,.36,3.68,2.14,2.14,0,0,1-1.72,2.5A30.36,30.36,0,0,1,171.29,184.94Zm-2.44-4.37a23.41,23.41,0,0,0,4.88,0c-.07-.73-.11-1.47-.11-2.2a7.41,7.41,0,0,1,4.4-6.82,7.32,7.32,0,0,1,7.9,1.1q.62.53,1.2,1.11c.51.52,1,1.06,1.48,1.63a24,24,0,0,0,1.81-1.63c.56-.56,1.1-1.16,1.64-1.81-.58-.48-1.12-1-1.64-1.49a22.67,22.67,0,0,1-4.7-6.81,5.07,5.07,0,0,1-.05-4,5,5,0,0,1,2.87-2.74,22.06,22.06,0,0,1,8.81-1.42c0-.29,0-.58,0-.86,0-.75,0-1.53-.12-2.35a20.11,20.11,0,0,1-3.73-.18,7.28,7.28,0,0,1-5.86-4.58,7.6,7.6,0,0,1,1.12-7.58,22,22,0,0,1,1.65-1.85l.6-.57q-.3-.33-.6-.63c-.53-.53-1.11-1.05-1.74-1.57-.17.18-.33.36-.5.52a23.05,23.05,0,0,1-2.36,2.06,7.35,7.35,0,0,1-7.25,1,7.46,7.46,0,0,1-4.65-5.79,23.43,23.43,0,0,1-.29-3.65c0-.24,0-.48,0-.72a21.54,21.54,0,0,0-4.68,0c0,.24,0,.49,0,.72q0,1-.09,2a7.53,7.53,0,0,1-12.67,4.79l-.4-.4c-.17-.16-.33-.34-.5-.52-.64.52-1.21,1-1.75,1.57a20.8,20.8,0,0,0-1.56,1.75c.18.16.35.33.52.5l.39.4a7.53,7.53,0,0,1-4.79,12.67,19.42,19.42,0,0,1-2.76.07c-.08.82-.12,1.6-.12,2.35,0,.28,0,.57,0,.86a21.92,21.92,0,0,1,6.39.67,7.05,7.05,0,0,1,4.48,10.66,22.77,22.77,0,0,1-3.6,4.69l-.52.5c.51.63,1,1.21,1.56,1.74l.63.6q.28-.31.57-.6a22.72,22.72,0,0,1,2.21-1.94,7.31,7.31,0,0,1,7.62-.81,7.58,7.58,0,0,1,4.37,6.62c0,.25,0,.5,0,.74C169,179.1,168.92,179.84,168.85,180.57Z"/><path class="cls-3" d="M135.5,153.6H63.6a2.12,2.12,0,1,1,0-4.24h71.9a2.12,2.12,0,1,1,0,4.24Z"/><path class="cls-3" d="M138.63,104.05c-8.67,0-14.5-6.82-14.5-17s5.83-17,14.5-17,14.51,6.82,14.51,17S147.31,104.05,138.63,104.05Zm0-29.72c-7.57,0-10.26,6.58-10.26,12.74s2.69,12.74,10.26,12.74,10.27-6.58,10.27-12.74S146.2,74.33,138.63,74.33Z"/><path class="cls-3" d="M84.34,143.69H69.27a2.1,2.1,0,0,1-2-1.29L53.79,110.83a4.35,4.35,0,0,1,4-6.06h46.15a5.75,5.75,0,0,1,5.38,3.65l5.8,15.48a2.12,2.12,0,0,1-4,1.49L105.36,110a1.51,1.51,0,0,0-1.42-.94H57.79l12.88,30.44H84.34a2.12,2.12,0,0,1,0,4.24Z"/><path class="cls-3" d="M122,153.61H91.56a2.12,2.12,0,0,1-2.12-2.12v-4a8,8,0,0,1,8-8h10c.72-3.22,2.25-10.05,2.29-10.24a24.58,24.58,0,0,1,24-19.48h12a24.34,24.34,0,0,1,19.41,9.55,2.12,2.12,0,0,1-3.36,2.59,20.13,20.13,0,0,0-16.05-7.9h-12a20.32,20.32,0,0,0-19.83,16.12L111.26,142a2.13,2.13,0,0,1-2.07,1.66H97.47a3.78,3.78,0,0,0-3.78,3.78v1.89h26.63l2.62-11.87a2.12,2.12,0,0,1,2.53-1.61,2.1,2.1,0,0,1,1.61,2.52l-3,13.53A2.13,2.13,0,0,1,122,153.61Z"/></svg>