<svg id="Layer_1" data-name="Layer 1" xmlns="http://www.w3.org/2000/svg" viewBox="0 0 255.03 255.03"><defs><style>.cls-1{fill:#fff;}.cls-2{fill:#231f20;stroke:#231f20;}.cls-2,.cls-3{stroke-miterlimit:10;}.cls-3{fill:#00607e;stroke:#00607e;}</style></defs><circle class="cls-1" cx="127.51" cy="127.51" r="127.51"/><path class="cls-2" d="M136.8,98.07a1.58,1.58,0,0,1-1-.36l-4.76-4-10.12-4.63-.21-.12a8.13,8.13,0,0,1-1.47-12.27l.38-.4a1.54,1.54,0,0,1,1.9-.3l16.2,9.16a1.76,1.76,0,0,1,.37.29l4,4.21a1.55,1.55,0,0,1-2.26,2.13l-3.81-4L121.1,79.33a5,5,0,0,0,1.23,7L132.52,91a1.38,1.38,0,0,1,.35.22l4.93,4.13a1.55,1.55,0,0,1-1,2.74Z"/><path class="cls-2" d="M154.91,140.27a1.31,1.31,0,0,1-.44-.07l-.38-.11a8.73,8.73,0,0,1-6-10.31l2.22-11.94a1.55,1.55,0,1,1,3.05.56l-2.23,12a5.65,5.65,0,0,0,3,6.35l3.76-8.63a36.45,36.45,0,0,1,9.39-13l5.07-4.46a1.55,1.55,0,1,1,2.05,2.32l-5.07,4.47a33.49,33.49,0,0,0-8.59,11.9l-4.35,10A1.56,1.56,0,0,1,154.91,140.27Z"/><path class="cls-2" d="M134.18,103.87a1.55,1.55,0,0,1-1-.34L131,101.8l-8.34-3.19a8.06,8.06,0,0,1-4.83-5,7,7,0,0,1,.81-6l.28-.42a1.55,1.55,0,0,1,1.81-.61l9,3.12a1.55,1.55,0,1,1-1,2.93l-7.83-2.71a3.88,3.88,0,0,0-.12,2.75,4.93,4.93,0,0,0,3,3L132.36,99a1.5,1.5,0,0,1,.41.23l2.37,1.88a1.55,1.55,0,0,1,.25,2.18A1.53,1.53,0,0,1,134.18,103.87Z"/><path class="cls-2" d="M132.36,111a1.55,1.55,0,0,1-.63-.13l-8-3.54a8,8,0,0,1-4.75-5,7,7,0,0,1,.8-6l.28-.42a1.56,1.56,0,0,1,1.81-.62l9,3.12a1.55,1.55,0,0,1-1,2.94l-7.84-2.71a3.91,3.91,0,0,0-.12,2.74,5,5,0,0,0,3,3L133,108a1.55,1.55,0,0,1,.8,2A1.57,1.57,0,0,1,132.36,111Z"/><path class="cls-2" d="M159.67,92c-3.79,0-7.12-1.24-11.24-4.14L127.74,73.71a4.53,4.53,0,0,0-.76,3.13,5,5,0,0,0,2.26,3.57A1.55,1.55,0,0,1,127.52,83a8.15,8.15,0,0,1-3.63-5.78A7.71,7.71,0,0,1,126,71l.37-.4a1.55,1.55,0,0,1,2-.23l21.86,15c3.91,2.75,6.78,3.74,10.26,3.57l12.35-.66a1.55,1.55,0,1,1,.16,3.1L160.63,92Z"/><path class="cls-3" d="M135.32,159a4.59,4.59,0,0,1-1.22-.16l-6.84-1.72a1.55,1.55,0,1,1,.76-3l6.84,1.72a1.91,1.91,0,0,0,2.35-1.49l.43-2.27a1.91,1.91,0,0,0-1.41-2.22L126.47,147a1.55,1.55,0,0,1,.87-3l11,3.24a1.91,1.91,0,0,0,2.27-1.32l.93-3.07a1.91,1.91,0,0,0-1.22-2.37l-19.23-6.58a1.55,1.55,0,0,1,1-2.94l19.24,6.58a5,5,0,0,1,3.18,6.22l-.94,3.07a5,5,0,0,1-3.1,3.26,5,5,0,0,1,.18,2.58l-.43,2.26a5.06,5.06,0,0,1-2.24,3.29A5,5,0,0,1,135.32,159Z"/><path class="cls-3" d="M96.79,132.55a1.45,1.45,0,0,1-.41-.06l-7.47-2a1.55,1.55,0,1,1,.82-3l7,1.92,16.21-5a6.17,6.17,0,0,1,4.54-.46L129,127.19a1.55,1.55,0,1,1-.85,3l-11.45-3.24a3,3,0,0,0-2.34.27,1.36,1.36,0,0,1-.3.13l-16.78,5.14A1.47,1.47,0,0,1,96.79,132.55Z"/><path class="cls-3" d="M125.64,176.67a4.88,4.88,0,0,1-.93-.09l-26-6.33a1.56,1.56,0,0,1-.58-.28l-4.77-3.68-12.06-3.67a1.54,1.54,0,0,1-1-1.93,1.57,1.57,0,0,1,1.94-1L94.5,163.4a1.41,1.41,0,0,1,.5.26l4.73,3.65,25.65,6.24a1.75,1.75,0,0,0,2-1.38l.6-2.82a1.78,1.78,0,0,0-1.26-2.07l-4.33-1.18a1.55,1.55,0,0,1,.81-3l4.33,1.18A4.87,4.87,0,0,1,131,170l-.6,2.82A4.89,4.89,0,0,1,125.64,176.67Z"/><path class="cls-3" d="M130.51,168.13a5.06,5.06,0,0,1-1.28-.17l-5-1.31a1.55,1.55,0,0,1,.79-3l5,1.31a1.87,1.87,0,0,0,1.51-.23,1.9,1.9,0,0,0,.87-1.26l.57-3a1.92,1.92,0,0,0-1.37-2.21l-6.34-1.74a1.56,1.56,0,0,1,.82-3l6.34,1.74a5.05,5.05,0,0,1,3.6,5.8l-.58,3a5,5,0,0,1-4.93,4.07Z"/><path class="cls-3" d="M116.78,184a1.48,1.48,0,0,1-.64-.14,1.55,1.55,0,0,1-.78-2.05l3.66-8.13a1.55,1.55,0,0,1,2.83,1.27l-3.65,8.14A1.56,1.56,0,0,1,116.78,184Z"/><path class="cls-3" d="M107.17,179.68a1.58,1.58,0,0,1-.63-.13,1.55,1.55,0,0,1-.79-2.05l2.72-6.2a1.55,1.55,0,1,1,2.84,1.25l-2.72,6.2A1.57,1.57,0,0,1,107.17,179.68Z"/><path class="cls-3" d="M137,139a1.61,1.61,0,0,1-.64-.14,1.55,1.55,0,0,1-.78-2.05L151.25,102c-.14-.46-.7-1.63-2.9-2.62s-3.42-.64-3.89-.42l-16,35.58a1.55,1.55,0,1,1-2.83-1.27l16.19-36a1.43,1.43,0,0,1,.36-.51c.27-.24,2.74-2.34,7.45-.22s4.77,5.35,4.77,5.71a1.6,1.6,0,0,1-.14.61l-15.81,35.15A1.54,1.54,0,0,1,137,139Z"/><path class="cls-3" d="M114.59,184.94a9.81,9.81,0,0,1-4.24-1.15c-5.57-2.69-4.84-5.63-4.64-6.19a1.55,1.55,0,0,1,3,.88c0,.16.29,1.2,3,2.52,2.49,1.21,3.57.85,3.78.61a1.49,1.49,0,0,1,2.06-.59,1.61,1.61,0,0,1,.61,2.16A3.89,3.89,0,0,1,114.59,184.94Zm-6-6.29Zm0,0Zm0,0Zm0,0Z"/></svg>