<svg id="Layer_1" data-name="Layer 1" xmlns="http://www.w3.org/2000/svg" viewBox="0 0 255.03 255.03"><defs><style>.cls-1{fill:#fff;}.cls-2{fill:#20201d;}.cls-3{fill:#00607e;}</style></defs><circle class="cls-1" cx="127.51" cy="127.51" r="127.51"/><path class="cls-2" d="M156.85,175.07a51.77,51.77,0,0,1-16.27-2.79,1.79,1.79,0,0,1,1.16-3.38,48.75,48.75,0,0,0,14.67,2.59l-.19-14.5a1.81,1.81,0,0,1,.95-1.61l31.54-16.5c-9.45-4.29-16.49-11.34-21.45-21.43a36.4,36.4,0,0,0-28.78-20.28,1.79,1.79,0,0,1-1.67-1.89,1.81,1.81,0,0,1,1.89-1.67,40,40,0,0,1,31.76,22.26c5.15,10.48,12.71,17.39,23.1,21.13a1.78,1.78,0,0,1,1.18,1.55,1.81,1.81,0,0,1-1,1.71L159.8,158l.21,15.19a1.78,1.78,0,0,1-1.67,1.8C158.26,175,157.74,175.07,156.85,175.07Z"/><path class="cls-2" d="M124.76,90c-7.48,0-12.5-5.74-12.5-14.28s5-14.28,12.5-14.28,12.49,5.74,12.49,14.28S132.23,90,124.76,90Zm0-25c-6.59,0-8.93,5.77-8.93,10.71s2.34,10.71,8.93,10.71,8.92-5.77,8.92-10.71S131.34,65,124.76,65Z"/><path class="cls-2" d="M140.82,193.56a1.78,1.78,0,0,1-1.78-1.79v-58.9a1.79,1.79,0,1,1,3.57,0v58.9A1.79,1.79,0,0,1,140.82,193.56Z"/><path class="cls-2" d="M105.75,150.72a1.79,1.79,0,0,1-1.79-1.79l1.29-7v-3.34L104,132.87a1.79,1.79,0,1,1,3.57,0l1.29,5.55v3.74l-1.29,6.77A1.79,1.79,0,0,1,105.75,150.72Z"/><path class="cls-2" d="M145.93,133H132.67a18.79,18.79,0,0,1-4.81-.88l-.23,0-10.26.84H100a8,8,0,0,1-6-2.56A5.49,5.49,0,0,1,92.69,126l3.71-20.69c1.3-6.37,8.37-11.71,15.46-11.71h2.19a1.77,1.77,0,0,1,1.62,1.05l9.14,6.15,9-6.15a1.78,1.78,0,0,1,1.63-1.05h1.27a14.28,14.28,0,0,1,13.7,11.67l2.8,20.76a5.11,5.11,0,0,1-1.17,4.21A8.23,8.23,0,0,1,145.93,133Zm-18.57-4.85a17.71,17.71,0,0,0,5.31,1.28h13.26a4.6,4.6,0,0,0,3.38-1.47,1.57,1.57,0,0,0,.41-1.36l-2.8-20.75a10.67,10.67,0,0,0-10.18-8.69h-.12L128,102.65c-.68,1.28-1.89,1.35-3.2,1.35h0c-1.31,0-2.51-.08-3.14-1.23l-8.72-5.6h-1c-5.41,0-11,4.12-12,8.81l-3.69,20.6a1.89,1.89,0,0,0,.49,1.53,4.51,4.51,0,0,0,3.29,1.33h17.23l5-.41c-4-2.52-11.08-6.35-16.62-5.81a1.73,1.73,0,0,1-1.51-.59,1.79,1.79,0,0,1-.41-1.57l2-9a1.79,1.79,0,0,1,3.49.76l-1.49,6.79C116.29,120.15,126,127.14,127.36,128.16Z"/><path class="cls-2" d="M105.81,122.72a1.79,1.79,0,0,1-1.44-2.83l2.16-3a4.25,4.25,0,0,1,4.84-1.81l7,1.32c1.91-.22,12.45-1.27,19.82,1l-.53-5.3a1.79,1.79,0,0,1,1.6-2,1.77,1.77,0,0,1,2,1.6l.81,8.25a1.8,1.8,0,0,1-.79,1.66,1.77,1.77,0,0,1-1.83.08c-6.61-3.55-20.74-1.83-20.88-1.82a1.75,1.75,0,0,1-.56,0l-7.45-1.4a1.29,1.29,0,0,1-.38-.12c-.15-.06-.51.22-.74.54l-2.16,3A1.79,1.79,0,0,1,105.81,122.72Z"/><path class="cls-3" d="M113.1,193.26c-9.34,0-18.79-2.79-18.79-8.12a1.79,1.79,0,1,1,3.57,0c0,1.54,5.37,4.55,15.22,4.55s15.23-3,15.23-4.55a1.79,1.79,0,1,1,3.57,0C131.9,190.47,122.44,193.26,113.1,193.26Z"/><path class="cls-3" d="M113.1,185.53c-9.34,0-18.79-2.79-18.79-8.12a1.79,1.79,0,0,1,3.57,0c0,1.55,5.37,4.55,15.22,4.55s15.23-3,15.23-4.55a1.79,1.79,0,0,1,3.57,0C131.9,182.74,122.44,185.53,113.1,185.53Z"/><path class="cls-3" d="M113.1,193.46c-9.34,0-18.79-2.79-18.79-8.13v-7.92a1.79,1.79,0,0,1,3.57,0v7.92c0,1.55,5.37,4.56,15.22,4.56s15.23-3,15.23-4.56v-7.92a1.79,1.79,0,0,1,3.57,0v7.92C131.9,190.67,122.44,193.46,113.1,193.46Z"/><path class="cls-3" d="M113.1,177.69c-9.34,0-18.79-2.79-18.79-8.12a1.79,1.79,0,1,1,3.57,0c0,1.54,5.37,4.55,15.22,4.55s15.23-3,15.23-4.55a1.79,1.79,0,1,1,3.57,0C131.9,174.9,122.44,177.69,113.1,177.69Z"/><path class="cls-3" d="M113.1,185.61c-9.34,0-18.79-2.78-18.79-8.12v-7.92a1.79,1.79,0,1,1,3.57,0v7.92c0,1.55,5.37,4.56,15.22,4.56s15.23-3,15.23-4.56v-7.92a1.79,1.79,0,1,1,3.57,0v7.92C131.9,182.83,122.44,185.61,113.1,185.61Z"/><path class="cls-3" d="M113.1,170c-9.34,0-18.79-2.79-18.79-8.13s9.45-8.12,18.79-8.12,18.8,2.79,18.8,8.12S122.44,170,113.1,170Zm0-12.68c-9.85,0-15.22,3-15.22,4.55s5.37,4.56,15.22,4.56,15.23-3,15.23-4.56S123,157.29,113.1,157.29Z"/><path class="cls-3" d="M113.1,177.89c-9.34,0-18.79-2.79-18.79-8.12v-7.93a1.79,1.79,0,0,1,3.57,0v7.93c0,1.54,5.37,4.55,15.22,4.55s15.23-3,15.23-4.55v-7.93a1.79,1.79,0,0,1,3.57,0v7.93C131.9,175.1,122.44,177.89,113.1,177.89Z"/><path class="cls-3" d="M79.08,193.36c-9.33,0-18.79-2.79-18.79-8.13a1.79,1.79,0,0,1,3.57,0c0,1.55,5.37,4.56,15.22,4.56s15.23-3,15.23-4.56a1.79,1.79,0,0,1,3.57,0C97.88,190.57,88.42,193.36,79.08,193.36Z"/><path class="cls-3" d="M79.08,185.63c-9.33,0-18.79-2.79-18.79-8.12s9.46-8.12,18.79-8.12,18.8,2.79,18.8,8.12S88.42,185.63,79.08,185.63Zm0-12.67c-9.85,0-15.22,3-15.22,4.55s5.37,4.55,15.22,4.55,15.23-3,15.23-4.55S88.93,173,79.08,173Z"/><path class="cls-3" d="M79.08,193.56c-9.33,0-18.79-2.79-18.79-8.13v-7.92a1.79,1.79,0,1,1,3.57,0v7.92c0,1.55,5.37,4.56,15.22,4.56s15.23-3,15.23-4.56v-7.92a1.79,1.79,0,1,1,3.57,0v7.92C97.88,190.77,88.42,193.56,79.08,193.56Z"/></svg>