<svg id="Layer_1" data-name="Layer 1" xmlns="http://www.w3.org/2000/svg" viewBox="0 0 255.03 255.03"><defs><style>.cls-1{fill:#fff;}.cls-2{fill:#161a19;stroke:#20201d;}.cls-2,.cls-3{stroke-miterlimit:10;}.cls-3{fill:#00607e;stroke:#00607e;}</style></defs><circle class="cls-1" cx="127.51" cy="127.51" r="127.51"/><polygon class="cls-2" points="76.58 183.74 72.43 184.82 67.54 166.1 65.47 166.65 64.38 162.49 70.62 160.86 76.58 183.74"/><polygon class="cls-2" points="123.26 184.94 119.03 184.21 123.04 160.91 129.4 162.01 128.67 166.25 126.55 165.88 123.26 184.94"/><path class="cls-2" d="M202.66,184.93h-4.3v-27.2c0-15.81-13.4-28.68-29.86-28.68H146.55a30.41,30.41,0,0,0-17.86,5.7l-2.51-3.49a34.68,34.68,0,0,1,20.37-6.51H168.5c18.83,0,34.16,14.8,34.16,33Z"/><rect class="cls-2" x="155.37" y="150.54" width="4.3" height="4.3"/><rect class="cls-2" x="155.37" y="163.44" width="4.3" height="4.3"/><rect class="cls-2" x="155.37" y="176.33" width="4.3" height="4.3"/><polygon class="cls-2" points="185.46 184.93 181.16 184.93 181.16 161.29 187.61 161.29 187.61 165.59 185.46 165.59 185.46 184.93"/><path class="cls-3" d="M157,120.46A25.06,25.06,0,0,1,137.36,111L113.76,81.4a20.89,20.89,0,1,0,.13,27.59l7.43-9.33,3.36,2.67-7.48,9.41a25.18,25.18,0,1,1-.14-33.1l23.65,29.69a20.88,20.88,0,1,0-.4-25.6L133.82,91l-3.38-2.67,6.47-8.18A25.19,25.19,0,1,1,157,120.46Z"/><path class="cls-2" d="M86.54,124.76c-18.84,0-34.17,14.79-34.17,33l1.55,27.2h4.3l-1.55-27.2c0-15.81,13.4-28.68,29.87-28.68h0Z"/><path class="cls-2" d="M108.48,124.76H107v4.29h1.51c16.46,0,29.86,12.87,29.86,28.68l-1.55,27.2h4.3l1.55-27.2C142.64,139.55,127.31,124.76,108.48,124.76Z"/><polygon class="cls-2" points="86.54 124.75 86.54 137.71 106.97 137.71 106.97 124.75 111.36 125.88 111.36 142.33 82.24 142.33 82.24 125.88 86.54 124.75"/></svg>