<svg id="Layer_1" data-name="Layer 1" xmlns="http://www.w3.org/2000/svg" viewBox="0 0 255.03 255.03"><defs><style>.cls-1{fill:#fff;}.cls-2{fill:#20201d;stroke:#20201d;}.cls-2,.cls-3{stroke-miterlimit:10;stroke-width:1.07px;}.cls-3{fill:#00607e;stroke:#00607e;}</style></defs><circle class="cls-1" cx="127.51" cy="127.51" r="127.51"/><path class="cls-2" d="M113.8,165.24H93.22a5.15,5.15,0,0,1-5.14-5.15V127.51a5.15,5.15,0,0,1,5.14-5.14h65.16a1.72,1.72,0,0,0,1.71-1.71V91.51a1.72,1.72,0,0,0-1.71-1.72H115.46a25.76,25.76,0,0,1-25.66,24,25.73,25.73,0,0,1-25.69-27,25.72,25.72,0,0,1,48.62-10.4A1.72,1.72,0,1,1,109.67,78a22.31,22.31,0,1,0,2.41,10.1,1.71,1.71,0,0,1,1.72-1.71h44.58a5.14,5.14,0,0,1,5.14,5.14v29.15a5.15,5.15,0,0,1-5.14,5.14H93.22a1.72,1.72,0,0,0-1.71,1.71v32.58a1.72,1.72,0,0,0,1.71,1.72H113.8a1.72,1.72,0,0,1,0,3.43Z"/><path class="cls-3" d="M161.81,189.24a25.83,25.83,0,0,1-23.31-14.83c-.25-.54-.49-1.09-.7-1.64a1.71,1.71,0,1,1,3.2-1.23c.19.48.39,1,.61,1.42a22.45,22.45,0,1,0-2.09-9.44,1.72,1.72,0,1,1-3.43,0,25.72,25.72,0,1,1,25.72,25.72Z"/><path class="cls-3" d="M161.81,165.24H124.09a1.72,1.72,0,1,1,0-3.43h37.72a1.72,1.72,0,0,1,0,3.43Z"/><path class="cls-3" d="M136.09,165.24h-6.86a1.73,1.73,0,0,1-1.43-.77l-3.43-5.14a1.72,1.72,0,0,1,2.86-1.9l2.92,4.38h2.73l-1.65-2.48a1.72,1.72,0,1,1,2.86-1.9l3.42,5.14a1.69,1.69,0,0,1,.09,1.76A1.72,1.72,0,0,1,136.09,165.24Z"/><path class="cls-3" d="M132.66,170.38a1.66,1.66,0,0,1-.95-.29,1.72,1.72,0,0,1-.48-2.38l1.65-2.47h-2.73l-2.92,4.38a1.72,1.72,0,0,1-2.86-1.91l3.43-5.14a1.72,1.72,0,0,1,1.43-.76h6.86a1.71,1.71,0,0,1,1.42,2.66l-3.42,5.15A1.74,1.74,0,0,1,132.66,170.38Z"/><path class="cls-3" d="M161.81,144.66a1.72,1.72,0,0,1-1.72-1.71v-6.86a1.72,1.72,0,1,1,3.43,0V143A1.72,1.72,0,0,1,161.81,144.66Z"/><path class="cls-3" d="M161.81,192.67a1.72,1.72,0,0,1-1.72-1.72V184.1a1.72,1.72,0,1,1,3.43,0V191A1.72,1.72,0,0,1,161.81,192.67Z"/><path class="cls-3" d="M189.24,165.24h-6.86a1.72,1.72,0,0,1,0-3.43h6.86a1.72,1.72,0,0,1,0,3.43Z"/><path class="cls-2" d="M89.8,69.22a1.72,1.72,0,0,1-1.72-1.71V64.08a1.72,1.72,0,1,1,3.43,0v3.43A1.72,1.72,0,0,1,89.8,69.22Z"/><path class="cls-2" d="M69.22,89.79H65.79a1.71,1.71,0,0,1,0-3.42h3.43a1.71,1.71,0,1,1,0,3.42Z"/><path class="cls-2" d="M89.8,113.8a1.72,1.72,0,0,1-1.72-1.72v-3.43a1.72,1.72,0,0,1,3.43,0v3.43A1.72,1.72,0,0,1,89.8,113.8Z"/><path class="cls-2" d="M99.94,99.94a1.71,1.71,0,0,1-1.21-.5L88.58,89.29a1.7,1.7,0,0,1-.5-1.21V77.79a1.72,1.72,0,0,1,3.43,0v9.58L101.15,97a1.72,1.72,0,0,1-1.21,2.93Z"/><path class="cls-3" d="M161.81,175.52a12,12,0,0,1-8.9-3.94,1.71,1.71,0,1,1,2.54-2.3,8.57,8.57,0,1,0-2.22-5.76,1.72,1.72,0,1,1-3.43,0,12,12,0,1,1,12,12Z"/></svg>