<svg id="Layer_1" data-name="Layer 1" xmlns="http://www.w3.org/2000/svg" viewBox="0 0 255.03 255.03"><defs><style>.cls-1{fill:#fff;}.cls-2{fill:#20201d;}.cls-3{fill:#00607e;}</style></defs><circle class="cls-1" cx="127.51" cy="127.51" r="127.51"/><path class="cls-2" d="M165.07,146.79a1.9,1.9,0,0,1-1.34-.56l-8-8a1.89,1.89,0,0,1-.56-1.34,1.93,1.93,0,0,1,.55-1.34l34.77-34.91a1.9,1.9,0,0,1,2.68,0l8.06,8a2,2,0,0,1,.56,1.34,1.89,1.89,0,0,1-.56,1.34l-34.77,34.91A1.89,1.89,0,0,1,165.07,146.79Zm-5.38-9.93,5.38,5.35L197.16,110l-5.37-5.35Z"/><path class="cls-2" d="M154.36,149.49a1.9,1.9,0,0,1-1.84-2.36l2.65-10.72a1.9,1.9,0,0,1,3.18-.89l8.06,8a1.89,1.89,0,0,1-.88,3.18l-10.71,2.7A1.82,1.82,0,0,1,154.36,149.49Zm3.69-8.92L157,145l4.41-1.11Z"/><path class="cls-2" d="M175.63,168.85h-70.4a1.89,1.89,0,0,1-1.74-1.16L71.49,92a1.9,1.9,0,0,1,1.75-2.64H89.48a1.9,1.9,0,1,1,0,3.79H76.1l30.39,71.87h66.35l-5.4-13.69A1.9,1.9,0,0,1,171,150l6.42,16.28a1.9,1.9,0,0,1-1.76,2.59Z"/><path class="cls-2" d="M161.61,133.73a1.9,1.9,0,0,1-1.76-1.19L144.14,93.19H129.19a1.9,1.9,0,1,1,0-3.79h16.24a1.91,1.91,0,0,1,1.76,1.2l16.18,40.53a1.9,1.9,0,0,1-1.06,2.47A1.93,1.93,0,0,1,161.61,133.73Z"/><path class="cls-2" d="M129.19,93.19H89.48A1.91,1.91,0,0,1,87.73,92l-6-14.49a1.89,1.89,0,0,1,1.75-2.62H94.58a5.71,5.71,0,0,1,1.32-2.63,7.15,7.15,0,0,1,5.49-2.2,13.5,13.5,0,0,1,9.92,4.83h12a1.88,1.88,0,0,1,1.75,1.18l5.86,14.49a1.89,1.89,0,0,1-.18,1.77A1.92,1.92,0,0,1,129.19,93.19ZM90.74,89.4h35.63l-4.32-10.69H110.38a1.93,1.93,0,0,1-1.56-.81,9.81,9.81,0,0,0-7.43-4,3.53,3.53,0,0,0-2.66.92,2.17,2.17,0,0,0-.47,1.78,1.89,1.89,0,0,1-.46,1.49,1.93,1.93,0,0,1-1.42.64H86.28Z"/><path class="cls-2" d="M187.61,176.89H99.86a1.89,1.89,0,0,1-1.74-1.15L59,84a1.9,1.9,0,0,1,1.75-2.63H86.12a1.9,1.9,0,1,1,0,3.79H63.65l37.46,87.95h83.72l-10.6-26.94a1.9,1.9,0,1,1,3.53-1.39l11.62,29.53a1.89,1.89,0,0,1-1.77,2.59Z"/><path class="cls-2" d="M168,127.29a1.89,1.89,0,0,1-1.76-1.19L150,85.15h-24a1.9,1.9,0,1,1,0-3.79h25.33A1.9,1.9,0,0,1,153,82.55l16.69,42.15a1.88,1.88,0,0,1-1.76,2.59Z"/><path class="cls-3" d="M98.22,114.12H94.63a1.9,1.9,0,0,1,0-3.79h3.59a1.9,1.9,0,0,1,0,3.79Z"/><path class="cls-3" d="M141.23,114.12H109a1.9,1.9,0,0,1,0-3.79h32.26a1.9,1.9,0,1,1,0,3.79Z"/><path class="cls-3" d="M105.61,131.82h-3.56a1.9,1.9,0,1,1,0-3.79h3.56a1.9,1.9,0,1,1,0,3.79Z"/><path class="cls-3" d="M147.48,131.82H116.3a1.9,1.9,0,0,1,0-3.79h31.18a1.9,1.9,0,1,1,0,3.79Z"/><path class="cls-3" d="M113,149.53h-3.55a1.9,1.9,0,0,1,0-3.79H113a1.9,1.9,0,0,1,0,3.79Z"/><path class="cls-3" d="M139.47,149.53H123.63a1.9,1.9,0,0,1,0-3.79h15.84a1.9,1.9,0,1,1,0,3.79Z"/><path class="cls-2" d="M182.05,184.94H94.54a1.89,1.89,0,0,1-1.74-1.15L53.45,92a1.9,1.9,0,0,1,1.74-2.64H57a1.89,1.89,0,0,1,1,3.53l37.84,88.22h83.74a1.9,1.9,0,0,1,3.64-.42l.64,1.61a1.92,1.92,0,0,1-.19,1.77A1.89,1.89,0,0,1,182.05,184.94Z"/></svg>