<svg id="Layer_1" data-name="Layer 1" xmlns="http://www.w3.org/2000/svg" viewBox="0 0 255.03 255.03"><defs><style>.cls-1{fill:#fff;}.cls-2{fill:#20201d;}.cls-3{fill:#00607e;}</style></defs><circle class="cls-1" cx="127.51" cy="127.51" r="127.51"/><path class="cls-2" d="M169.3,119.82a2.21,2.21,0,0,1-2.2-2.2V82.43a2.2,2.2,0,0,0-2.2-2.2H72.53a2.21,2.21,0,0,0-2.2,2.2v35.19a2.2,2.2,0,1,1-4.4,0V82.43a6.61,6.61,0,0,1,6.6-6.6H164.9a6.61,6.61,0,0,1,6.6,6.6v35.19A2.2,2.2,0,0,1,169.3,119.82Z"/><path class="cls-2" d="M125.31,150.61H87.93a2.2,2.2,0,1,1,0-4.4h37.38a2.2,2.2,0,1,1,0,4.4Z"/><path class="cls-2" d="M136.31,179.2H98.92v-8.08l1.38-.56c.37-.16,9.5-4.28,9.62-22.17l0-2.18h15.38a2.2,2.2,0,0,1,0,4.4H114.26c-.73,15.36-7.87,21.4-10.94,23.3v.89h33a2.2,2.2,0,0,1,0,4.4Z"/><path class="cls-2" d="M83.53,179.2H52.74a6.61,6.61,0,0,1-6.6-6.6V122a6.61,6.61,0,0,1,6.6-6.6H83.53a6.61,6.61,0,0,1,6.6,6.6V172.6A6.61,6.61,0,0,1,83.53,179.2ZM52.74,119.82a2.19,2.19,0,0,0-2.2,2.2V172.6a2.2,2.2,0,0,0,2.2,2.2H83.53a2.21,2.21,0,0,0,2.2-2.2V122a2.2,2.2,0,0,0-2.2-2.2Z"/><path class="cls-2" d="M202.29,179.2H123.12a6.61,6.61,0,0,1-6.6-6.6V166a2.2,2.2,0,0,1,2.2-2.2h88a2.2,2.2,0,0,1,2.2,2.2v6.6A6.61,6.61,0,0,1,202.29,179.2Zm-81.37-11v4.4a2.2,2.2,0,0,0,2.2,2.2h79.17a2.21,2.21,0,0,0,2.2-2.2v-4.4Z"/><path class="cls-2" d="M202.29,168.2H123.12V122a6.6,6.6,0,0,1,6.59-6.6h66a6.61,6.61,0,0,1,6.6,6.6Zm-74.78-4.4h70.38V122a2.19,2.19,0,0,0-2.2-2.2h-66a2.2,2.2,0,0,0-2.2,2.2Z"/><path class="cls-2" d="M87.93,130.81H48.34a2.2,2.2,0,0,1,0-4.4H87.93a2.2,2.2,0,1,1,0,4.39Z"/><path class="cls-3" d="M68.13,166a13.2,13.2,0,1,1,13.2-13.19A13.21,13.21,0,0,1,68.13,166Zm0-22a8.8,8.8,0,1,0,8.8,8.8A8.8,8.8,0,0,0,68.13,144Z"/><path class="cls-3" d="M76.38,161.88a2.2,2.2,0,0,1-1.41-.51l-8.25-6.87a2.21,2.21,0,0,1-.79-1.69v-11a2.2,2.2,0,0,1,4.4,0v10L77.79,158a2.2,2.2,0,0,1-1.41,3.89Z"/><path class="cls-3" d="M140.18,110.36a7,7,0,0,1-6.38-4.29c-.67-1.47-2.59-3.86-3.51-3.88-.23,0-1.08,0-3,2.86-.5.7-2.92,3.81-6.23,4.1a5.72,5.72,0,0,1-4.56-1.73c-1.74-1.45-4-5.21-6.85-10-.79-1.34-1.48-2.51-2-3.24s-1.09-1.33-1.6-1.33h0c-.51,0-1.07.43-1.54,1.19-2.82,4.68-8.25,12.46-13.12,12.55H85.36c-.82-.06-3,0-4.16,0H80a2.2,2.2,0,0,1,0-4.4h1.1c1.94,0,3.61,0,4.39,0h5.88c1.49,0,5.32-3.67,9.37-10.38a6.34,6.34,0,0,1,5.33-3.36h0a6.27,6.27,0,0,1,5.29,3.4c.46.68,1.19,1.91,2,3.33,1.71,2.9,4.57,7.75,6,8.94.69.67,1.07.63,1.23.62,1-.09,2.37-1.35,3-2.22,1.52-2.31,3.54-4.76,6.62-4.76,4.48.11,7.42,6.36,7.45,6.43a2.58,2.58,0,0,0,3.61,1.5c4.35-2.36,7.87-3.5,10.9-3.5h4.45a2.2,2.2,0,0,1,0,4.4H152.3c-1.43,0-3.92.32-9,3.06A7.87,7.87,0,0,1,140.18,110.36Z"/><path class="cls-2" d="M125.32,139.61H87.93a2.2,2.2,0,1,1,0-4.4h37.39a2.2,2.2,0,0,1,0,4.4Z"/><path class="cls-3" d="M116.52,128.61H96.72a2.2,2.2,0,1,1,0-4.39h19.8a2.2,2.2,0,1,1,0,4.39Z"/><path class="cls-3" d="M116.52,119.82H96.72a2.2,2.2,0,0,1,0-4.4h19.8a2.2,2.2,0,1,1,0,4.4Z"/><path class="cls-3" d="M140.71,133h-4.4a2.2,2.2,0,0,1,0-4.4h4.4a2.2,2.2,0,0,1,0,4.4Z"/><path class="cls-3" d="M140.71,144h-4.4a2.2,2.2,0,0,1,0-4.4h4.4a2.2,2.2,0,0,1,0,4.4Z"/><path class="cls-3" d="M140.71,155h-4.4a2.2,2.2,0,0,1,0-4.4h4.4a2.2,2.2,0,0,1,0,4.4Z"/><path class="cls-3" d="M189.1,133H151.71a2.2,2.2,0,0,1,0-4.4H189.1a2.2,2.2,0,1,1,0,4.4Z"/><path class="cls-3" d="M178.1,144H151.71a2.2,2.2,0,0,1,0-4.4H178.1a2.2,2.2,0,1,1,0,4.4Z"/><path class="cls-3" d="M164.9,155H151.71a2.2,2.2,0,0,1,0-4.4H164.9a2.2,2.2,0,1,1,0,4.4Z"/></svg>