<svg id="Layer_1" data-name="Layer 1" xmlns="http://www.w3.org/2000/svg" viewBox="0 0 255.03 255.03"><defs><style>.cls-1{fill:#fff;}.cls-2{fill:#00607e;stroke:#00607e;}.cls-2,.cls-3{stroke-miterlimit:10;}.cls-3{fill:#161919;stroke:#161919;}</style></defs><circle class="cls-1" cx="127.51" cy="127.51" r="127.51"/><path class="cls-2" d="M80.07,148.24a1.44,1.44,0,0,1-1.44-1.44V128a1.44,1.44,0,0,1,2.88,0V146.8A1.43,1.43,0,0,1,80.07,148.24Z"/><path class="cls-2" d="M101.71,125.21a1.43,1.43,0,0,1-1.44-1.44V111.2a1.43,1.43,0,0,1,1.44-1.44h1.2a1.43,1.43,0,0,1,1.44,1.44,1.45,1.45,0,0,1-1.2,1.42v11.15A1.44,1.44,0,0,1,101.71,125.21Z"/><path class="cls-2" d="M90.89,141a1.43,1.43,0,0,1-1.44-1.44v-1.74a1.44,1.44,0,0,1,2.88,0v1.74A1.44,1.44,0,0,1,90.89,141Z"/><path class="cls-2" d="M108.92,124.67a1.44,1.44,0,0,1-1.44-1.44V107.59c0-7.52-5-13-11.78-13H86.08c-6.24,0-10.94,4.51-11.68,11.22a1.43,1.43,0,0,1-1.59,1.27,1.45,1.45,0,0,1-1.28-1.59c.91-8.11,6.89-13.78,14.55-13.78H95.7c8.36,0,14.66,6.82,14.66,15.87v15.64A1.43,1.43,0,0,1,108.92,124.67Z"/><path class="cls-2" d="M90.89,89.79c-5.09,0-8.65-4.05-8.65-9.85s3.56-9.85,8.65-9.85,8.65,4,8.65,9.85S96,89.79,90.89,89.79Zm0-16.82c-4.26,0-5.77,3.75-5.77,7s1.51,7,5.77,7,5.77-3.76,5.77-7S95.15,73,90.89,73Z"/><path class="cls-2" d="M68.05,116.24a1.43,1.43,0,0,1-1.44-1.44v-3.6a1.44,1.44,0,0,1,2.88,0v3.6A1.43,1.43,0,0,1,68.05,116.24Z"/><path class="cls-2" d="M84.88,129.46H68.05A1.43,1.43,0,0,1,66.61,128v-4.81a1.44,1.44,0,0,1,2.88,0v3.37h14v-17.8a1,1,0,0,0-1-1H80.07a1.44,1.44,0,0,1,0-2.88h2.41a3.84,3.84,0,0,1,3.84,3.84V128A1.44,1.44,0,0,1,84.88,129.46Z"/><path class="cls-2" d="M80.07,112.64H63.24a1.45,1.45,0,0,1-1.44-1.44v-2.41A3.85,3.85,0,0,1,65.65,105H82.48a1.44,1.44,0,0,1,0,2.88,1,1,0,0,0-1,1v2.41A1.44,1.44,0,0,1,80.07,112.64Zm-15.39-2.88H78.63v-1a3.77,3.77,0,0,1,.12-1H65.65a1,1,0,0,0-1,1Z"/><path class="cls-2" d="M69.07,124.66H67a2.83,2.83,0,0,1-2.82-2.83v-4.44A2.82,2.82,0,0,1,67,114.57h2a2.82,2.82,0,0,1,2.82,2.82v4.44A2.83,2.83,0,0,1,69.07,124.66ZM69,117.39l-2,0,0,4.39,1.93,0Zm.06,4.39Z"/><path class="cls-3" d="M95.36,174.21a1.51,1.51,0,0,1-.58-.12,56.1,56.1,0,0,1-7.39-3.89c-8-5-12.19-11.11-12.19-17.53a1.44,1.44,0,0,1,1.44-1.44H191.79a1.44,1.44,0,0,1,1.44,1.44c0,6.41-4.22,12.47-12.19,17.53a1.44,1.44,0,0,1-1.54-2.43c6.46-4.1,10.15-8.79,10.76-13.66H78.17c.61,4.87,4.3,9.56,10.76,13.66a53.34,53.34,0,0,0,7,3.68,1.44,1.44,0,0,1-.58,2.76Z"/><path class="cls-3" d="M173.08,154.11a1.51,1.51,0,0,1-.62-.14,1.44,1.44,0,0,1-.68-1.92l7.29-15.3a14.92,14.92,0,0,0,1.64-6.84,4.72,4.72,0,0,0-2.82-4.36l-.37-.18a8.34,8.34,0,0,0-4.8-.7c-1.25.22-11.14,4.5-17.76,7.47a1.47,1.47,0,0,1-1.23,0l-9.09-4.51a2.32,2.32,0,0,0-3,.88,2.29,2.29,0,0,0-.24,1.79,2.26,2.26,0,0,0,1.12,1.41l10.64,5.79,8.14-3.25a1.44,1.44,0,0,1,1.84,1.94l-1.66,3.53-5.42,9.64a1.44,1.44,0,0,1-1.79.63l-11.78-4.73L131,153.49a1.45,1.45,0,0,1-2-.33,1.43,1.43,0,0,1,.33-2l12.14-8.72a1.43,1.43,0,0,1,1.37-.16l11.34,4.55,4.82-8.58-5.39,2.15a1.45,1.45,0,0,1-1.22-.07l-11.24-6.11a5.19,5.19,0,0,1-2-7.21,5.2,5.2,0,0,1,6.74-2l8.48,4.2c4.45-2,16.09-7.13,17.9-7.4a11.23,11.23,0,0,1,6.44.93l.38.18a7.55,7.55,0,0,1,4.46,6.8,17.93,17.93,0,0,1-1.91,8.24l-7.29,15.31A1.45,1.45,0,0,1,173.08,154.11Z"/><path class="cls-3" d="M170.22,173.26a1.44,1.44,0,0,1-1.16-.58L140,133.54a1.44,1.44,0,1,1,2.31-1.71L171.37,171a1.44,1.44,0,0,1-.3,2A1.39,1.39,0,0,1,170.22,173.26Z"/><path class="cls-3" d="M173,184.94a3.91,3.91,0,0,1-3.15-1.58l-8-10.72a7.2,7.2,0,0,1,11.56-8.58l8,10.72a3.92,3.92,0,0,1-.82,5.49l-5.25,3.9h0A3.91,3.91,0,0,1,173,184.94Zm1.48-1.92h0Zm-6.82-19a4.29,4.29,0,0,0-2.56.84,4.33,4.33,0,0,0-.9,6.05l8,10.71a1.05,1.05,0,0,0,1.46.22l5.26-3.9a1.06,1.06,0,0,0,.41-.69,1.09,1.09,0,0,0-.19-.78l-8-10.71A4.32,4.32,0,0,0,167.63,164Z"/><path class="cls-3" d="M182.63,122.14a8.12,8.12,0,0,1-3-.6c-4.46-1.78-6-6.34-3.89-11.62s6.34-7.55,10.81-5.77,6,6.34,3.9,11.62C188.84,119.86,185.93,122.14,182.63,122.14Zm1-15.7c-3.09,0-4.71,3.36-5.18,4.55-.56,1.41-2.06,6.15,2.29,7.88s6.51-2.75,7.07-4.16,2.06-6.15-2.28-7.88A5.2,5.2,0,0,0,183.61,106.44Z"/><path class="cls-3" d="M124.25,154.11a1.55,1.55,0,0,1-.62-.14,1.45,1.45,0,0,1-.68-1.92l7.3-15.3c1-2,3.71-8.91-1.18-11.2l-.38-.18a8.39,8.39,0,0,0-4.79-.7c-1.25.22-11.14,4.5-17.76,7.47a1.47,1.47,0,0,1-1.23,0l-9.09-4.51a2.32,2.32,0,0,0-3,.88,2.29,2.29,0,0,0-.25,1.79,2.32,2.32,0,0,0,1.12,1.41l10.64,5.79,8.15-3.25a1.44,1.44,0,0,1,1.58.34,1.45,1.45,0,0,1,.25,1.6l-1.65,3.53-5.42,9.64a1.44,1.44,0,0,1-1.79.63l-11.78-4.67-12.19,8.14a1.44,1.44,0,1,1-1.6-2.4l12.82-8.55a1.4,1.4,0,0,1,1.33-.14l11.31,4.48,4.83-8.58-5.4,2.15a1.45,1.45,0,0,1-1.22-.07l-11.23-6.11a5.19,5.19,0,0,1-2-7.21,5.2,5.2,0,0,1,6.74-2l8.48,4.2c4.45-2,16.09-7.13,17.89-7.4a11.26,11.26,0,0,1,6.45.93l.37.18a7.56,7.56,0,0,1,4.47,6.8,17.93,17.93,0,0,1-1.91,8.24l-7.3,15.31A1.43,1.43,0,0,1,124.25,154.11Z"/><path class="cls-3" d="M121.39,173.26a1.42,1.42,0,0,1-1.15-.58L91.18,133.54a1.44,1.44,0,1,1,2.31-1.71L122.55,171a1.44,1.44,0,0,1-.3,2A1.39,1.39,0,0,1,121.39,173.26Z"/><path class="cls-3" d="M124.15,184.94a3.9,3.9,0,0,1-3.15-1.58l-8-10.72a7.19,7.19,0,1,1,11.55-8.58l8,10.72a3.85,3.85,0,0,1,.73,2.91,3.9,3.9,0,0,1-1.54,2.58l-5.26,3.9A3.9,3.9,0,0,1,124.15,184.94ZM118.81,164a4.31,4.31,0,0,0-3.46,6.89l8,10.71a1,1,0,0,0,1.46.22h0L130,178a1,1,0,0,0,.4-.69,1,1,0,0,0-.19-.78l-8-10.71A4.3,4.3,0,0,0,118.81,164Z"/><path class="cls-3" d="M133.81,122.14a8.08,8.08,0,0,1-3-.6,7.21,7.21,0,0,1-4.52-4.92,10.66,10.66,0,0,1,.62-6.7c2.1-5.28,6.34-7.55,10.82-5.77a7.23,7.23,0,0,1,4.52,4.93,10.64,10.64,0,0,1-.63,6.69C140,119.86,137.11,122.14,133.81,122.14Zm1-15.7c-3.1,0-4.71,3.36-5.18,4.55a7.94,7.94,0,0,0-.53,4.88,4.42,4.42,0,0,0,2.81,3c4.35,1.73,6.52-2.75,7.08-4.16a7.94,7.94,0,0,0,.52-4.88,4.38,4.38,0,0,0-2.81-3h0A5.15,5.15,0,0,0,134.79,106.44Z"/><path class="cls-3" d="M155.81,172.82H137.09a1.44,1.44,0,0,1,0-2.88h18.72a1.44,1.44,0,0,1,0,2.88Z"/><path class="cls-3" d="M148.61,181.28H140a1.44,1.44,0,1,1,0-2.87h8.64a1.44,1.44,0,1,1,0,2.87Z"/><path class="cls-3" d="M111.19,182.72h-8.64a1.44,1.44,0,1,1,0-2.88h8.64a1.44,1.44,0,1,1,0,2.88Z"/><path class="cls-3" d="M106.87,175.53H104a1.44,1.44,0,1,1,0-2.88h2.88a1.44,1.44,0,1,1,0,2.88Z"/><path class="cls-3" d="M161.56,181.28h-2.88a1.44,1.44,0,1,1,0-2.87h2.88a1.44,1.44,0,1,1,0,2.87Z"/></svg>