<svg id="Layer_1" data-name="Layer 1" xmlns="http://www.w3.org/2000/svg" viewBox="0 0 255.03 255.03"><defs><style>.cls-1{fill:#fff;}.cls-2{fill:#20201d;stroke:#20201d;}.cls-2,.cls-3{stroke-miterlimit:10;stroke-width:0.75px;}.cls-3{fill:#00607e;stroke:#00607e;}</style></defs><circle class="cls-1" cx="127.51" cy="127.51" r="127.51"/><path class="cls-2" d="M143.37,163.52a1.92,1.92,0,0,1-1-.26,2,2,0,0,1-.71-2.66,33.24,33.24,0,0,1,28.68-16.55A1.94,1.94,0,0,1,172.3,146v5.73l22.17-17.42L172.3,116.9v5.73a1.94,1.94,0,0,1-1.94,1.94,52.3,52.3,0,0,0-36.8,15,1.95,1.95,0,0,1-2.73-2.78,56.18,56.18,0,0,1,37.58-16.11v-7.82a2,2,0,0,1,1.09-1.75,2,2,0,0,1,2.06.22l27.26,21.42a1.94,1.94,0,0,1,0,3.06l-27.26,21.42a1.95,1.95,0,0,1-3.15-1.53V148a29.33,29.33,0,0,0-23.36,14.54A1.94,1.94,0,0,1,143.37,163.52Z"/><path class="cls-2" d="M139.2,184.94a2,2,0,0,1-1.95-1.95v-5.84a52.64,52.64,0,0,0-52.58-52.58,1.94,1.94,0,0,1-1.94-1.94V116.9L60.56,134.31l22.17,17.42V146a1.94,1.94,0,0,1,1.94-1.95,33.14,33.14,0,0,1,33.11,33.1V183a1.95,1.95,0,1,1-3.9,0v-5.84A29.24,29.24,0,0,0,86.62,148v7.72a1.95,1.95,0,0,1-3.15,1.53L56.21,135.84a1.94,1.94,0,0,1,0-3.06l27.26-21.42a2,2,0,0,1,2.06-.22,2,2,0,0,1,1.09,1.75v7.82a56.54,56.54,0,0,1,54.53,56.44V183A2,2,0,0,1,139.2,184.94Z"/><path class="cls-3" d="M139.2,126.52a2,2,0,0,1-1.95-2V99.26a2,2,0,0,1,1.95-2h5.73L127.51,75.15,110.1,97.31h5.73a2,2,0,0,1,2,2v25.31a2,2,0,0,1-3.9,0V101.21h-7.79a1.95,1.95,0,0,1-1.53-3.15L126,70.79a2,2,0,0,1,3.07,0l21.42,27.27a1.95,1.95,0,0,1-1.53,3.15h-7.79v23.36A2,2,0,0,1,139.2,126.52Z"/></svg>