<svg id="Layer_1" data-name="Layer 1" xmlns="http://www.w3.org/2000/svg" viewBox="0 0 255.03 255.03"><defs><style>.cls-1{fill:#fff;}.cls-2{fill:#00607e;stroke:#00607e;}.cls-2,.cls-3{stroke-miterlimit:10;}.cls-3{fill:#20201d;stroke:#20201d;}</style></defs><circle class="cls-1" cx="127.51" cy="127.51" r="127.51"/><path class="cls-2" d="M95.69,165.14H64a2,2,0,0,1-2-2V151.28a2,2,0,0,1,2-2H95.69a2,2,0,0,1,2,2v11.88A2,2,0,0,1,95.69,165.14Zm-29.71-4H93.71v-7.92H66Z"/><path class="cls-2" d="M143.21,165.14H111.53a2,2,0,0,1-2-2V151.28a2,2,0,0,1,2-2h31.68a2,2,0,0,1,2,2v11.88A2,2,0,0,1,143.21,165.14Zm-29.7-4h27.72v-7.92H113.51Z"/><path class="cls-2" d="M190.74,165.14H159.06a2,2,0,0,1-2-2V151.28a2,2,0,0,1,2-2h31.68a2,2,0,0,1,2,2v11.88A2,2,0,0,1,190.74,165.14Zm-29.7-4h27.72v-7.92H161Z"/><path class="cls-3" d="M95.69,175H64a2,2,0,0,1,0-4H95.69a2,2,0,1,1,0,4Z"/><path class="cls-3" d="M95.69,184.94H64a2,2,0,0,1,0-4H95.69a2,2,0,0,1,0,4Z"/><path class="cls-3" d="M143.21,175H111.53a2,2,0,0,1,0-4h31.68a2,2,0,0,1,0,4Z"/><path class="cls-3" d="M143.21,184.94H111.53a2,2,0,0,1,0-4h31.68a2,2,0,0,1,0,4Z"/><path class="cls-3" d="M191,175H159.34a2,2,0,0,1,0-4H191a2,2,0,0,1,0,4Z"/><path class="cls-3" d="M191,184.94H159.34a2,2,0,0,1,0-4H191a2,2,0,0,1,0,4Z"/><path class="cls-3" d="M79.85,137.42H64a2,2,0,0,1-2-2,65.15,65.15,0,0,1,17.08-44A2,2,0,1,1,82,94.08a61.21,61.21,0,0,0-16,39.38H77.9a49.05,49.05,0,0,1,9.76-27.58l.67-.87a2,2,0,1,1,3.12,2.43l-.62.81a45.15,45.15,0,0,0-9,27.19A2,2,0,0,1,79.85,137.42Z"/><path class="cls-3" d="M152.39,97a2,2,0,0,1-1-.3,45.57,45.57,0,0,0-38.09-4.58A2,2,0,0,1,112,88.36a49.48,49.48,0,0,1,15.35-2.43h0a49.38,49.38,0,0,1,24.71,6.61l8.63-8.64a61.37,61.37,0,0,0-59.54-4,2,2,0,0,1-1.69-3.59A65.35,65.35,0,0,1,165,82a2,2,0,0,1,.26,3L153.79,96.43A2,2,0,0,1,152.39,97Z"/><path class="cls-3" d="M190.74,137.42H174.9a2,2,0,0,1-2-2,45.6,45.6,0,0,0-15.42-34.15,2,2,0,0,1-.67-1.42,2,2,0,0,1,.58-1.46l11.22-11.23a2,2,0,0,1,2.74-.06,65.49,65.49,0,0,1,21.35,48.32A2,2,0,0,1,190.74,137.42Zm-13.9-4h11.89a61.58,61.58,0,0,0-18.65-42.12l-8.41,8.41A49.56,49.56,0,0,1,176.84,133.46Z"/><path class="cls-3" d="M129.2,142a7.93,7.93,0,0,1-6.2-3C121.44,137,85.46,89.18,82.53,80.15l-.9-2.75a2,2,0,0,1,2.9-2.31L87,76.57c8.16,4.88,46.71,50.59,48.35,52.53a7.91,7.91,0,0,1-1.23,11.17h0A7.86,7.86,0,0,1,129.2,142Zm3.7-3.28h0ZM88,82.36c6.54,11.6,29,42.1,38.17,54.23a4,4,0,0,0,7-2.07,3.93,3.93,0,0,0-.84-2.91C122.53,120,97.81,91.32,88,82.36Z"/></svg>