<svg id="Layer_1" data-name="Layer 1" xmlns="http://www.w3.org/2000/svg" viewBox="0 0 255.03 255.03"><defs><style>.cls-1{fill:#fff;}.cls-2{fill:#20201d;stroke:#20201d;}.cls-2,.cls-3{stroke-miterlimit:10;stroke-width:0.8px;}.cls-3{fill:#00607e;stroke:#00607e;}</style></defs><circle class="cls-1" cx="127.51" cy="127.51" r="127.51"/><path class="cls-2" d="M164.28,173.42a2,2,0,0,1-2.05-2V143.79a49.35,49.35,0,0,1-11.58-15.27,2,2,0,1,1,3.66-1.8,44.2,44.2,0,0,0,11.21,14.49,2,2,0,0,1,.8,1.62v28.55A2,2,0,0,1,164.28,173.42Z"/><path class="cls-2" d="M203.07,173.46a2,2,0,0,1-2-2.05V144.87c0-9.31-7.9-16.33-18.38-16.33h-4.08a22.48,22.48,0,0,1-22.46-22.46,2,2,0,1,1,4.08,0,18.4,18.4,0,0,0,18.38,18.37h4.08c12.81,0,22.46,8.78,22.46,20.42v26.54A2,2,0,0,1,203.07,173.46Z"/><path class="cls-2" d="M192.86,173.42a2,2,0,0,1-2-2V153a2,2,0,0,1,2-2h2a2,2,0,1,1,0,4.08v16.3A2,2,0,0,1,192.86,173.42Z"/><path class="cls-2" d="M178.57,120.37c-7.33,0-12.25-5.75-12.25-14.29s4.92-14.3,12.25-14.3,12.25,5.75,12.25,14.3S185.9,120.37,178.57,120.37Zm0-24.5c-6,0-8.17,5.27-8.17,10.21s2.15,10.2,8.17,10.2,8.17-5.27,8.17-10.2S184.59,95.87,178.57,95.87Z"/><path class="cls-2" d="M88.48,173.42a2,2,0,0,1-2-2l2.27-28.55a2.07,2.07,0,0,1,.8-1.62,44.49,44.49,0,0,0,11.2-14.49,2,2,0,0,1,3.67,1.8A49.35,49.35,0,0,1,92.8,143.79l-2.27,27.59A2,2,0,0,1,88.48,173.42Z"/><path class="cls-2" d="M52,173.46a2,2,0,0,1-2-2.05V144.87c0-11.64,9.65-20.42,22.46-20.42h4.08a18.4,18.4,0,0,0,18.38-18.37,2,2,0,1,1,4.08,0,22.48,22.48,0,0,1-22.46,22.46H72.38c-10.48,0-18.38,7-18.38,16.33v26.54A2,2,0,0,1,52,173.46Z"/><path class="cls-2" d="M64.44,173.42a2,2,0,0,1-2-2l-2.27-16.3a2,2,0,1,1,0-4.08h2a2,2,0,0,1,2,2l2.27,18.34A2,2,0,0,1,64.44,173.42Z"/><path class="cls-2" d="M76.46,120.37c-7.33,0-12.25-5.75-12.25-14.29s4.92-14.3,12.25-14.3,12.25,5.75,12.25,14.3S83.79,120.37,76.46,120.37Zm0-24.5c-6,0-8.17,5.27-8.17,10.21s2.15,10.2,8.17,10.2,8.17-5.27,8.17-10.2S82.48,95.87,76.46,95.87Z"/><path class="cls-3" d="M140.45,173.42a2,2,0,0,1-2-2l3.41-34.68a2,2,0,0,1,.83-1.64c.13-.1,13.46-10.2,13.46-31V88.72a3.07,3.07,0,0,0-6.13,0V102a22.51,22.51,0,0,1-7.1,16.39,22.22,22.22,0,0,1-16.85,6c-11.76-.76-21-10.91-21-23.11V88.72a3.06,3.06,0,0,0-6.12,0V104c0,20.93,13.32,30.93,13.45,31a2,2,0,0,1,.84,1.64l3.4,34.68a2,2,0,1,1-4.08,0l-3.4-33.7c-3.21-2.71-14.3-13.56-14.3-33.65V88.72a7.15,7.15,0,0,1,14.3,0v12.57c0,10,7.53,18.42,17.14,19A18.38,18.38,0,0,0,145.9,102V88.72a7.15,7.15,0,1,1,14.29,0V104c0,20.09-11.09,30.94-14.29,33.65l-3.4,33.7A2,2,0,0,1,140.45,173.42Z"/><path class="cls-3" d="M127.52,116.28c-7.33,0-12.25-5.74-12.25-14.29s4.92-14.29,12.25-14.29,12.25,5.74,12.25,14.29S134.85,116.28,127.52,116.28Zm0-24.5c-6,0-8.16,5.28-8.16,10.21s2.14,10.21,8.16,10.21,8.17-5.27,8.17-10.21S133.54,91.78,127.52,91.78Z"/></svg>